<svg id="Group_4078" data-name="Group 4078" xmlns="http://www.w3.org/2000/svg" xmlns:xlink="http://www.w3.org/1999/xlink" width="245.285" height="45" viewBox="0 0 245.285 45">
  <defs>
    <clipPath id="clip-path">
      <rect id="Rectangle_1890" data-name="Rectangle 1890" width="245.285" height="45" fill="none"/>
    </clipPath>
  </defs>
  <g id="Group_4078-2" data-name="Group 4078" clip-path="url(#clip-path)">
    <path id="Path_6930" data-name="Path 6930" d="M750.146,10.583h.437a.869.869,0,0,0,.95.83c.5,0,.869-.195.868-.637,0-.937-2.131-.416-2.134-1.718,0-.578.5-.97,1.232-.972a1.175,1.175,0,0,1,1.289,1.075h-.437a.765.765,0,0,0-.851-.675c-.495,0-.786.221-.785.57,0,.932,2.147.348,2.15,1.718,0,.661-.57,1.038-1.33,1.04a1.273,1.273,0,0,1-1.389-1.23" transform="translate(-578.715 -6.237)"/>
    <path id="Path_6931" data-name="Path 6931" d="M762.6,8.222h.458l1.154,3.126,1.148-3.132h.453l-1.37,3.648h-.453Z" transform="translate(-588.326 -6.337)"/>
    <path id="Path_6932" data-name="Path 6932" d="M778.1,8.189l2.281-.006v.4l-1.838,0,0,1.161,1.495,0v.4l-1.495,0,0,1.281,1.9-.005v.4l-2.338.006Z" transform="translate(-600.279 -6.313)"/>
    <path id="Path_6933" data-name="Path 6933" d="M790.317,10.547l-.006-2.4h.437l.006,2.416a.943.943,0,0,0,1.88-.005l-.007-2.416h.432l.006,2.4a1.377,1.377,0,0,1-2.749.007" transform="translate(-609.702 -6.283)"/>
    <path id="Path_6934" data-name="Path 6934" d="M804.323,9.8a1.712,1.712,0,0,1,1.75-1.869,1.48,1.48,0,0,1,1.544,1.172l-.469,0a1.013,1.013,0,0,0-1.075-.773A1.284,1.284,0,0,0,804.781,9.8a1.284,1.284,0,0,0,1.3,1.459,1,1,0,0,0,1.076-.778h.458a1.448,1.448,0,0,1-1.533,1.181,1.712,1.712,0,0,1-1.76-1.859" transform="translate(-620.511 -6.122)"/>
    <rect id="Rectangle_1884" data-name="Rectangle 1884" width="0.443" height="3.645" transform="matrix(1, -0.003, 0.003, 1, 187.566, 1.85)"/>
    <path id="Path_6935" data-name="Path 6935" d="M825.651,8.078h.443l.009,3.244,1.822,0v.4l-2.265.006Z" transform="translate(-636.965 -6.231)"/>
    <rect id="Rectangle_1885" data-name="Rectangle 1885" width="0.443" height="3.645" transform="matrix(1, -0.003, 0.003, 1, 191.315, 1.84)"/>
    <path id="Path_6936" data-name="Path 6936" d="M841.2,10.34h.437a.869.869,0,0,0,.95.83c.505,0,.869-.195.868-.637,0-.937-2.131-.416-2.134-1.718,0-.578.5-.97,1.232-.972a1.175,1.175,0,0,1,1.289,1.075H843.4a.765.765,0,0,0-.851-.675c-.495,0-.786.221-.785.569,0,.932,2.147.349,2.15,1.718,0,.661-.57,1.038-1.33,1.04a1.273,1.273,0,0,1-1.388-1.23" transform="translate(-648.958 -6.05)"/>
    <path id="Path_6937" data-name="Path 6937" d="M854.935,8.379l-1.166,0v-.4l2.776-.007v.4l-1.161,0,.009,3.244h-.448Z" transform="translate(-658.656 -6.152)"/>
    <path id="Path_6938" data-name="Path 6938" d="M867.462,7.949l2.281-.006v.4l-1.838.005,0,1.161,1.494,0v.4l-1.495,0,0,1.281,1.9-.005v.4l-2.338.006Z" transform="translate(-669.221 -6.128)"/>
    <path id="Path_6939" data-name="Path 6939" d="M884.693,10.294l-.006-2.4h.437l.006,2.416a.943.943,0,0,0,1.88-.005L887,7.892h.432l.006,2.4a1.377,1.377,0,0,1-2.749.007" transform="translate(-682.51 -6.088)"/>
    <path id="Path_6940" data-name="Path 6940" d="M903.523,11.093l2.221-2.849-2.109.006v-.4l2.619-.007v.4l-2.18,2.849,2.192-.006v.4l-2.744.008Z" transform="translate(-697.041 -6.049)"/>
    <path id="Path_6941" data-name="Path 6941" d="M918.594,10.477l-1.624,0-.378.985h-.464l1.443-3.649h.4l1.463,3.641h-.463Zm-.157-.4-.661-1.717-.657,1.72Z" transform="translate(-706.766 -6.031)"/>
    <path id="Path_6942" data-name="Path 6942" d="M931.281,9.465A1.725,1.725,0,0,1,933.036,7.6a1.466,1.466,0,0,1,1.571,1.188h-.469A1.057,1.057,0,0,0,933.032,8a1.293,1.293,0,0,0-1.3,1.467,1.3,1.3,0,0,0,1.305,1.47c.6,0,1.129-.342,1.128-.867a.262.262,0,0,0-.287-.275l-.823,0V9.408l.9,0a.644.644,0,0,1,.648.623l0,1.25H934.2l0-.635a1.232,1.232,0,0,1-1.159.68,1.72,1.72,0,0,1-1.755-1.859" transform="translate(-718.456 -5.86)"/>
    <path id="Path_6943" data-name="Path 6943" d="M950.672,10.474l.065.906h-.427l-.065-.88a.589.589,0,0,0-.6-.6l-.989,0,0,1.484h-.443l-.01-3.645,1.38,0A1.047,1.047,0,0,1,950.756,8.8a.913.913,0,0,1-.57.85.975.975,0,0,1,.486.822M948.659,9.5l.937,0a.642.642,0,0,0,.7-.695.627.627,0,0,0-.705-.67l-.937,0Z" transform="translate(-731.518 -5.97)"/>
    <path id="Path_6944" data-name="Path 6944" d="M962.522,7.7l2.281-.006v.4l-1.838,0,0,1.161,1.494,0v.4l-1.495,0,0,1.281,1.9-.005v.4l-2.338.006Z" transform="translate(-742.557 -5.932)"/>
    <path id="Path_6945" data-name="Path 6945" d="M975.007,7.67l1.3,0c.692,0,1.115.341,1.117.934a.8.8,0,0,1-.482.715.908.908,0,0,1,.648.93c0,.656-.44,1.063-1.19,1.065l-1.385,0Zm1.3,1.506c.437,0,.682-.189.681-.564s-.246-.556-.683-.555l-.849,0,0,1.119Zm.025,1.734c.536,0,.812-.237.811-.669s-.278-.671-.814-.67l-.87,0,0,1.338Z" transform="translate(-752.189 -5.915)"/>
    <path id="Path_6946" data-name="Path 6946" d="M988.253,10.017l-.006-2.4h.437l.006,2.416a.943.943,0,0,0,1.88-.005l-.007-2.416H991l.006,2.4a1.377,1.377,0,0,1-2.749.007" transform="translate(-762.403 -5.874)"/>
    <path id="Path_6947" data-name="Path 6947" d="M809.418,3.734l-.293.391-.31-.389h-.449l.569.73h.387l.575-.733Z" transform="translate(-623.631 -2.88)" fill="#02000d"/>
    <path id="Path_6948" data-name="Path 6948" d="M844.361,3.734l-.293.391-.309-.389h-.449l.569.73h.387l.575-.733Z" transform="translate(-650.588 -2.88)" fill="#02000d"/>
    <path id="Path_6949" data-name="Path 6949" d="M750.15,57.463h4.974v1.019H751.3V60.8h3.09v1.019H751.3v3.4H750.15Z" transform="translate(-578.719 -44.331)" fill="#02000d"/>
    <path id="Path_6950" data-name="Path 6950" d="M779.862,68.646v3.6h-1.075v-.908a1.926,1.926,0,0,1-1.817,1,1.7,1.7,0,0,1-1.894-1.684c0-1.075.853-1.739,2.171-1.739h1.163c.255,0,.376-.133.376-.332,0-.676-.487-1.141-1.351-1.141a1.269,1.269,0,0,0-1.373,1.052h-1a2.238,2.238,0,0,1,2.4-1.916,2.123,2.123,0,0,1,2.392,2.071M778.788,69.8v-.133h-1.44c-.731,0-1.207.376-1.207.964,0,.509.421.853,1.041.853a1.517,1.517,0,0,0,1.606-1.684" transform="translate(-597.94 -51.361)" fill="#02000d"/>
    <path id="Path_6951" data-name="Path 6951" d="M802.637,61.986l-.7.643v2.027h-1.086v-7.92h1.086V61.3l2.426-2.226h1.4l-2.348,2.182,2.559,3.4h-1.329Z" transform="translate(-617.835 -43.77)" fill="#02000d"/>
    <path id="Path_6952" data-name="Path 6952" d="M830.767,72.546h-1.074V71.56a1.834,1.834,0,0,1-1.794,1.075,2.044,2.044,0,0,1-2.083-2.238V66.963h1.075v3.223A1.327,1.327,0,0,0,828.2,71.67a1.54,1.54,0,0,0,1.5-1.684V66.963h1.074Z" transform="translate(-637.093 -51.66)" fill="#02000d"/>
    <rect id="Rectangle_1886" data-name="Rectangle 1886" width="1.075" height="7.92" transform="translate(194.905 12.966)" fill="#02000d"/>
    <path id="Path_6953" data-name="Path 6953" d="M862.933,59.305v1.75h1.651v.931h-1.651v2.747a.818.818,0,0,0,.864.93h.787v.975h-.875a1.7,1.7,0,0,1-1.85-1.828V61.986h-1.141v-.931h1.141v-1.75Z" transform="translate(-664.018 -45.752)" fill="#02000d"/>
    <path id="Path_6954" data-name="Path 6954" d="M884.764,70.43a2.41,2.41,0,0,1-2.581,1.905,2.782,2.782,0,0,1-2.8-2.913,2.64,2.64,0,0,1,2.692-2.847,2.515,2.515,0,0,1,2.647,2.647c0,.144-.011.321-.022.421h-4.265a1.765,1.765,0,0,0,1.75,1.772,1.371,1.371,0,0,0,1.506-.986Zm-4.3-1.573h3.168a1.457,1.457,0,0,0-1.562-1.418,1.529,1.529,0,0,0-1.606,1.418" transform="translate(-678.416 -51.361)" fill="#02000d"/>
    <path id="Path_6955" data-name="Path 6955" d="M906.7,59.305v1.75h1.65v.931H906.7v2.747a.818.818,0,0,0,.864.93h.787v.975h-.875a1.7,1.7,0,0,1-1.85-1.828V61.986h-1.141v-.931h1.141v-1.75Z" transform="translate(-697.786 -45.752)" fill="#02000d"/>
    <path id="Path_6956" data-name="Path 6956" d="M753.692,120.147a2.41,2.41,0,0,1-2.581,1.905,2.782,2.782,0,0,1-2.8-2.913A2.64,2.64,0,0,1,751,116.292a2.515,2.515,0,0,1,2.647,2.647c0,.144-.011.321-.022.421h-4.265a1.765,1.765,0,0,0,1.75,1.772,1.371,1.371,0,0,0,1.506-.986Zm-4.3-1.573h3.168A1.457,1.457,0,0,0,751,117.156a1.529,1.529,0,0,0-1.606,1.418" transform="translate(-577.298 -89.716)" fill="#02000d"/>
    <rect id="Rectangle_1887" data-name="Rectangle 1887" width="1.074" height="7.92" transform="translate(177.303 24.328)" fill="#02000d"/>
    <path id="Path_6957" data-name="Path 6957" d="M789.853,120.147a2.41,2.41,0,0,1-2.581,1.905,2.782,2.782,0,0,1-2.8-2.913,2.64,2.64,0,0,1,2.692-2.847,2.515,2.515,0,0,1,2.647,2.647c0,.144-.011.321-.022.421h-4.265a1.765,1.765,0,0,0,1.75,1.772,1.371,1.371,0,0,0,1.506-.986Zm-4.3-1.573h3.168a1.457,1.457,0,0,0-1.562-1.418,1.529,1.529,0,0,0-1.606,1.418" transform="translate(-605.195 -89.716)" fill="#02000d"/>
    <path id="Path_6958" data-name="Path 6958" d="M813.785,111.7l-.7.643v2.027H812v-7.92h1.085v4.564l2.426-2.226h1.4l-2.348,2.182,2.559,3.4H815.79Z" transform="translate(-626.435 -82.125)" fill="#02000d"/>
    <path id="Path_6959" data-name="Path 6959" d="M837,109.021v1.75h1.65v.931H837v2.747a.818.818,0,0,0,.864.93h.787v.975h-.875a1.7,1.7,0,0,1-1.85-1.828V111.7h-1.141v-.931h1.141v-1.75Z" transform="translate(-644.011 -84.106)" fill="#02000d"/>
    <path id="Path_6960" data-name="Path 6960" d="M857.278,117.61c-1.019,0-1.351.908-1.351,2.127v2.525h-1.074V116.68h1.074v1.074a1.4,1.4,0,0,1,1.484-1.074h.676v.93Z" transform="translate(-659.493 -90.015)" fill="#02000d"/>
    <path id="Path_6961" data-name="Path 6961" d="M870.606,119.172a2.874,2.874,0,1,1,2.88,2.88,2.781,2.781,0,0,1-2.88-2.88m4.652,0a1.784,1.784,0,1,0-1.772,1.938,1.776,1.776,0,0,0,1.772-1.938" transform="translate(-671.647 -89.716)" fill="#02000d"/>
    <path id="Path_6962" data-name="Path 6962" d="M899.53,109.021v1.75h1.651v.931H899.53v2.747a.818.818,0,0,0,.864.93h.787v.975h-.875a1.705,1.705,0,0,1-1.85-1.828V111.7h-1.141v-.931h1.141v-1.75Z" transform="translate(-692.252 -84.106)" fill="#02000d"/>
    <path id="Path_6963" data-name="Path 6963" d="M921.36,120.147a2.41,2.41,0,0,1-2.581,1.905,2.782,2.782,0,0,1-2.8-2.913,2.64,2.64,0,0,1,2.692-2.847,2.515,2.515,0,0,1,2.647,2.647c0,.144-.011.321-.022.421h-4.265a1.765,1.765,0,0,0,1.75,1.772,1.371,1.371,0,0,0,1.507-.986Zm-4.3-1.573h3.168a1.457,1.457,0,0,0-1.562-1.418,1.529,1.529,0,0,0-1.606,1.418" transform="translate(-706.649 -89.716)" fill="#02000d"/>
    <path id="Path_6964" data-name="Path 6964" d="M943.509,106.453h1.074v3.323a1.834,1.834,0,0,1,1.794-1.074,2.044,2.044,0,0,1,2.082,2.238v3.434h-1.075V111.15a1.327,1.327,0,0,0-1.307-1.484,1.54,1.54,0,0,0-1.5,1.684v3.024h-1.074Z" transform="translate(-727.889 -82.125)" fill="#02000d"/>
    <path id="Path_6965" data-name="Path 6965" d="M970.314,116.381h1.075v.986a1.834,1.834,0,0,1,1.794-1.074,2.044,2.044,0,0,1,2.082,2.238v3.434h-1.074V118.74a1.327,1.327,0,0,0-1.307-1.484,1.54,1.54,0,0,0-1.5,1.684v3.024h-1.075Z" transform="translate(-748.568 -89.716)" fill="#02000d"/>
    <path id="Path_6966" data-name="Path 6966" d="M998.048,107.8H996.83v-1.4h1.218Zm-1.152.953h1.075v5.583H996.9Z" transform="translate(-769.025 -82.088)" fill="#02000d"/>
    <path id="Path_6967" data-name="Path 6967" d="M1008.937,111.7l-.7.643v2.027h-1.086v-7.92h1.086v4.564l2.426-2.226h1.4l-2.348,2.182,2.559,3.4h-1.329Z" transform="translate(-776.989 -82.125)" fill="#02000d"/>
    <path id="Path_6968" data-name="Path 6968" d="M1036.1,120.147a2.411,2.411,0,0,1-2.581,1.905,2.782,2.782,0,0,1-2.8-2.913,2.64,2.64,0,0,1,2.692-2.847,2.515,2.515,0,0,1,2.647,2.647c0,.144-.011.321-.022.421h-4.264a1.765,1.765,0,0,0,1.75,1.772,1.371,1.371,0,0,0,1.506-.986Zm-4.3-1.573h3.168a1.457,1.457,0,0,0-1.562-1.418,1.529,1.529,0,0,0-1.606,1.418" transform="translate(-795.164 -89.716)" fill="#02000d"/>
    <path id="Path_6969" data-name="Path 6969" d="M1069.206,107.8h-1.218v-1.4h1.218Zm-1.152.953h1.074v5.583h-1.074Z" transform="translate(-823.921 -82.088)" fill="#02000d"/>
    <path id="Path_6970" data-name="Path 6970" d="M752.14,167.327c-1.019,0-1.352.908-1.352,2.127v2.525h-1.075V166.4h1.075v1.074a1.4,1.4,0,0,1,1.484-1.074h.675v.93Z" transform="translate(-578.382 -128.37)" fill="#02000d"/>
    <path id="Path_6971" data-name="Path 6971" d="M770.749,168.079v3.6h-1.074v-.908a1.927,1.927,0,0,1-1.817,1,1.7,1.7,0,0,1-1.894-1.684c0-1.075.853-1.739,2.171-1.739H769.3c.254,0,.377-.133.377-.332,0-.676-.488-1.141-1.351-1.141a1.269,1.269,0,0,0-1.374,1.052h-1a2.238,2.238,0,0,1,2.4-1.916,2.123,2.123,0,0,1,2.392,2.071m-1.074,1.152V169.1h-1.44c-.731,0-1.208.376-1.208.964,0,.509.421.853,1.042.853a1.518,1.518,0,0,0,1.606-1.684" transform="translate(-590.91 -128.07)" fill="#02000d"/>
    <path id="Path_6972" data-name="Path 6972" d="M790.092,168.888a2.714,2.714,0,0,1,2.769-2.88,2.445,2.445,0,0,1,2.592,2.038h-1.075a1.444,1.444,0,0,0-1.5-1.1c-1.119,0-1.673.864-1.673,1.938s.565,1.938,1.673,1.938a1.459,1.459,0,0,0,1.506-1.03h1.064a2.408,2.408,0,0,1-2.592,1.972,2.715,2.715,0,0,1-2.769-2.88" transform="translate(-609.533 -128.07)" fill="#02000d"/>
    <path id="Path_6973" data-name="Path 6973" d="M822.091,171.979h-1.075v-.986a1.834,1.834,0,0,1-1.794,1.075,2.044,2.044,0,0,1-2.082-2.238V166.4h1.074v3.223a1.327,1.327,0,0,0,1.307,1.484,1.54,1.54,0,0,0,1.5-1.684V166.4h1.075Z" transform="translate(-630.399 -128.37)" fill="#02000d"/>
    <path id="Path_6974" data-name="Path 6974" d="M843.946,166.1h1.074v.986a1.834,1.834,0,0,1,1.795-1.074,2.044,2.044,0,0,1,2.082,2.238v3.434h-1.075v-3.223a1.327,1.327,0,0,0-1.307-1.484,1.541,1.541,0,0,0-1.5,1.684v3.024h-1.074Z" transform="translate(-651.079 -128.07)" fill="#02000d"/>
    <path id="Path_6975" data-name="Path 6975" d="M874.628,168.079v3.6h-1.074v-.908a1.926,1.926,0,0,1-1.816,1,1.7,1.7,0,0,1-1.894-1.684c0-1.075.853-1.739,2.171-1.739h1.163c.255,0,.377-.133.377-.332,0-.676-.487-1.141-1.351-1.141a1.269,1.269,0,0,0-1.374,1.052h-1a2.237,2.237,0,0,1,2.4-1.916,2.122,2.122,0,0,1,2.392,2.071m-1.074,1.152V169.1h-1.44c-.731,0-1.207.376-1.207.964,0,.509.421.853,1.041.853a1.517,1.517,0,0,0,1.606-1.684" transform="translate(-671.05 -128.07)" fill="#02000d"/>
    <path id="Path_6976" data-name="Path 6976" d="M897.8,167.327c-1.019,0-1.351.908-1.351,2.127v2.525h-1.075V166.4h1.075v1.074a1.4,1.4,0,0,1,1.484-1.074h.676v.93Z" transform="translate(-690.756 -128.37)" fill="#02000d"/>
    <path id="Path_6977" data-name="Path 6977" d="M911.228,169.864h1.008a1.115,1.115,0,0,0,1.252,1.008c.642,0,1.052-.343,1.052-.753,0-1.484-3.168-.122-3.168-2.5,0-.964.82-1.606,1.983-1.606a1.943,1.943,0,0,1,2.182,1.75h-1.008a1.107,1.107,0,0,0-1.174-.9c-.576,0-.964.288-.964.72,0,1.384,3.19-.033,3.19,2.515,0,1.019-.831,1.673-2.094,1.673a2.037,2.037,0,0,1-2.259-1.905" transform="translate(-702.986 -128.071)" fill="#02000d"/>
    <path id="Path_6978" data-name="Path 6978" d="M934.334,158.738v1.75h1.65v.931h-1.65v2.747a.818.818,0,0,0,.864.93h.787v.975h-.875a1.7,1.7,0,0,1-1.85-1.828v-2.824h-1.141v-.931h1.141v-1.75Z" transform="translate(-719.102 -122.462)" fill="#02000d"/>
    <path id="Path_6979" data-name="Path 6979" d="M949.715,166.4h1.108l1.462,4.231,1.473-4.231h1.108l-2.038,5.583h-1.063Z" transform="translate(-732.677 -128.37)" fill="#02000d"/>
    <path id="Path_6980" data-name="Path 6980" d="M978.8,168.079v3.6h-1.074v-.908a1.927,1.927,0,0,1-1.817,1,1.7,1.7,0,0,1-1.894-1.684c0-1.075.853-1.739,2.171-1.739h1.163c.255,0,.377-.133.377-.332,0-.676-.487-1.141-1.351-1.141A1.269,1.269,0,0,0,975,167.924h-1a2.238,2.238,0,0,1,2.4-1.916,2.123,2.123,0,0,1,2.392,2.071m-1.074,1.152V169.1h-1.44c-.731,0-1.207.376-1.207.964,0,.509.421.853,1.041.853a1.517,1.517,0,0,0,1.606-1.684" transform="translate(-751.412 -128.07)" fill="#02000d"/>
    <path id="Path_6981" data-name="Path 6981" d="M797.584,159.082l-.482.6-.506-.6h-.8l.956,1.2h.7l.988-1.2Z" transform="translate(-613.931 -122.727)" fill="#02000d"/>
    <path id="Path_6982" data-name="Path 6982" d="M536.666,25.862l.114.016c.01-.092.02-.185.033-.277.023-.229.055-.459.1-.685.012-.091.027-.181.042-.272l-.115-.016a1.034,1.034,0,0,1-.063.231.2.2,0,0,1-.066.1.167.167,0,0,1-.1.035.849.849,0,0,1-.171-.009l-1.809-.251a.894.894,0,0,1-.17-.037.182.182,0,0,1-.125-.171,1.377,1.377,0,0,1,.006-.24l-.113-.016c-.013.091-.025.181-.034.272l-.027.192c-.01.1-.024.2-.042.3l-.027.191c-.016.092-.029.184-.042.276l.114.016a1.459,1.459,0,0,1,.059-.232.257.257,0,0,1,.067-.1.179.179,0,0,1,.1-.035.919.919,0,0,1,.174.01l1.81.251a.808.808,0,0,1,.166.037.165.165,0,0,1,.087.06.216.216,0,0,1,.039.111,1.215,1.215,0,0,1,0,.24M535.6,28.609l.2.053.154.041.188.061a2.483,2.483,0,0,1,.044-.268c.01-.038.019-.076.026-.112.056-.21.114-.42.164-.631.025-.093.047-.182.067-.266.048-.181.093-.364.148-.543.024-.089.049-.176.075-.264l-.1-.028a1.1,1.1,0,0,1-.091.222.2.2,0,0,1-.078.087.172.172,0,0,1-.1.022.827.827,0,0,1-.168-.03l-1.772-.471a.883.883,0,0,1-.165-.059.182.182,0,0,1-.1-.185,1.4,1.4,0,0,1,.035-.237L534,25.971c-.023.088-.046.176-.067.265l-.05.188c-.015.064-.027.115-.036.15l-.3,1.084-.024.088c-.012.035-.023.072-.033.111l-.039.114c-.018.045-.034.09-.051.136l.37.132c.125.048.248.1.37.152l.029-.109a1.51,1.51,0,0,1-.26-.2.591.591,0,0,1-.13-.189.6.6,0,0,1-.043-.216,1.654,1.654,0,0,1,.144-.569.385.385,0,0,1,.126-.154.337.337,0,0,1,.187-.038,7.313,7.313,0,0,1,.868.208,2.722,2.722,0,0,1-.153.49.421.421,0,0,1-.1.146.23.23,0,0,1-.128.058.632.632,0,0,1-.232-.016l-.03.112.236.054.156.034.235.062.147.047.222.068.029-.112a.566.566,0,0,1-.184-.095.334.334,0,0,1-.1-.13.544.544,0,0,1-.039-.2,1.858,1.858,0,0,1,.1-.483l1.075.286a3.13,3.13,0,0,1-.216.656.68.68,0,0,1-.177.233.4.4,0,0,1-.2.09,2.689,2.689,0,0,1-.3.025l-.027.1.224.05m-3.454,2.375,1.9.881A2.4,2.4,0,0,1,534.3,32a.505.505,0,0,1,.144.123.221.221,0,0,1,.039.132.645.645,0,0,1-.06.232l.106.049c.027-.066.056-.133.085-.2.074-.181.158-.36.248-.533.033-.071.068-.141.1-.21l-.105-.049a1.4,1.4,0,0,1-.142.232.165.165,0,0,1-.113.068.35.35,0,0,1-.183-.02,2.956,2.956,0,0,1-.3-.125l-1.193-.556-.045.01,2.673-.832.237-.51-.1-.048a1.191,1.191,0,0,1-.131.21.153.153,0,0,1-.117.058.535.535,0,0,1-.228-.042c-.374-.134-1.3-.586-1.437-.651a2.556,2.556,0,0,1-.263-.138.47.47,0,0,1-.138-.124.218.218,0,0,1-.042-.134.681.681,0,0,1,.061-.227l-.1-.048c-.028.061-.056.122-.081.184l-.059.128c-.035.085-.073.166-.114.247l-.074.158c-.037.073-.072.147-.106.221l.1.048a1.749,1.749,0,0,1,.133-.224.2.2,0,0,1,.116-.072.371.371,0,0,1,.181.015,2.4,2.4,0,0,1,.312.125l1.184.551.046-.008-2.737.839Zm.356,3.2.2.118.293.189.16.114.044-.069a.9.9,0,0,1,.1-.118l.1-.1c.034-.035.07-.073.106-.116a1.21,1.21,0,0,0,.256-.474.953.953,0,0,0,.033-.316.709.709,0,0,0-.087-.286.689.689,0,0,0-.46-.325.786.786,0,0,0-.254.009,1.474,1.474,0,0,0-.279.093c-.1.044-.2.1-.323.155s-.2.1-.285.136a.89.89,0,0,1-.215.07.421.421,0,0,1-.161.005.522.522,0,0,1-.291-.186.4.4,0,0,1-.087-.153.435.435,0,0,1-.009-.191.78.78,0,0,1,.306-.448.722.722,0,0,1,.242-.09.889.889,0,0,1,.26,0,2.12,2.12,0,0,1,.292.062l.061-.095a3.874,3.874,0,0,1-.353-.181c-.113-.064-.227-.129-.338-.195a1.242,1.242,0,0,1-.134.181l-.1.119a1.561,1.561,0,0,0-.394.638,1.05,1.05,0,0,0-.046.356.781.781,0,0,0,.091.328.689.689,0,0,0,.472.352.586.586,0,0,0,.247-.01,1.305,1.305,0,0,0,.284-.1c.1-.045.225-.1.363-.17.119-.059.22-.1.3-.136a1.112,1.112,0,0,1,.208-.058.307.307,0,0,1,.134,0,.53.53,0,0,1,.242.165.464.464,0,0,1,.084.139.359.359,0,0,1,.017.159.565.565,0,0,1-.266.377.49.49,0,0,1-.222.07.724.724,0,0,1-.243-.027,2.584,2.584,0,0,1-.285-.089Zm-2.158.389,1.422,1.147a.866.866,0,0,1,.124.118.172.172,0,0,1,.043.1.22.22,0,0,1-.025.115,1.152,1.152,0,0,1-.125.2l.09.073c.056-.074.113-.147.171-.219.137-.185.283-.365.435-.539q.087-.107.177-.211l-.09-.073a1.084,1.084,0,0,1-.173.166.2.2,0,0,1-.107.048.174.174,0,0,1-.1-.022.881.881,0,0,1-.141-.1l-1.422-1.147a.916.916,0,0,1-.127-.12.181.181,0,0,1-.019-.211,1.32,1.32,0,0,1,.129-.2l-.09-.072c-.057.071-.114.142-.169.215l-.122.151c-.062.082-.125.161-.193.239l-.121.15c-.061.07-.12.143-.178.215l.089.072a1.434,1.434,0,0,1,.17-.168.271.271,0,0,1,.108-.048.185.185,0,0,1,.1.022.915.915,0,0,1,.144.1M528.467,36.1a.775.775,0,0,0,.014.34.689.689,0,0,0,.381.45.6.6,0,0,0,.243.046,1.318,1.318,0,0,0,.3-.035c.112-.021.242-.049.392-.084.13-.031.238-.053.325-.065a1.174,1.174,0,0,1,.216-.009.3.3,0,0,1,.129.034.532.532,0,0,1,.2.216.465.465,0,0,1,.051.154.365.365,0,0,1-.019.159.566.566,0,0,1-.344.307.5.5,0,0,1-.232.019.728.728,0,0,1-.231-.081,2.454,2.454,0,0,1-.258-.151l-.08.077c.057.053.113.107.169.161l.135.138.107.111.13.149.059-.057a.956.956,0,0,1,.121-.093l.12-.074c.041-.026.084-.056.129-.089a1.2,1.2,0,0,0,.356-.4.958.958,0,0,0,.1-.3.707.707,0,0,0-.02-.3.691.691,0,0,0-.375-.42.762.762,0,0,0-.249-.048,1.425,1.425,0,0,0-.293.028c-.1.021-.221.048-.349.079s-.222.052-.309.068a.866.866,0,0,1-.225.019.4.4,0,0,1-.159-.031.521.521,0,0,1-.242-.246.4.4,0,0,1-.05-.168.436.436,0,0,1,.034-.188.782.782,0,0,1,.4-.368.721.721,0,0,1,.256-.033.9.9,0,0,1,.253.057,2.219,2.219,0,0,1,.271.126l.08-.078a3.789,3.789,0,0,1-.3-.255c-.1-.088-.192-.177-.287-.266a1.168,1.168,0,0,1-.171.146l-.127.092a1.568,1.568,0,0,0-.527.532,1.056,1.056,0,0,0-.125.336m-4.746,3.109a.345.345,0,0,1,.114.017.571.571,0,0,1,.135.054c.051.024.109.053.172.086l1.041.576-.134.861a1.987,1.987,0,0,1-.044.227,1.108,1.108,0,0,1-.07.2.727.727,0,0,1-.112.171.79.79,0,0,1-.207.151l.054.1.2-.115c.044-.025.091-.051.139-.075a2.4,2.4,0,0,1,.227-.116c.039-.02.076-.037.109-.052l.157-.069-.054-.105a.427.427,0,0,1-.194.063c-.08-.007-.084-.08-.077-.144s.016-.117.026-.183l.14-.838-.024-.015c.127.062.253.125.378.191.08.039.162.08.242.122s.149.078.212.115.118.067.159.095a.22.22,0,0,1,.062.051c.029.056-.137.138-.17.156l.054.1.208-.116c.047-.027.1-.053.143-.077.08-.046.162-.088.247-.126.05-.026.1-.05.149-.072l.214-.1-.053-.1a.5.5,0,0,1-.164.052.634.634,0,0,1-.132-.01,1.129,1.129,0,0,1-.143-.046c-.049-.021-.1-.046-.151-.074l-1.176-.6.112-.954a.809.809,0,0,1,.038-.19.481.481,0,0,1,.176-.245,1.911,1.911,0,0,1,.178-.118l-.053-.1-.182.1c-.167.1-.341.184-.516.264l-.213.1.055.106a.489.489,0,0,1,.137-.059.213.213,0,0,1,.082,0,.1.1,0,0,1,.047.021.218.218,0,0,1,.074.161,1.057,1.057,0,0,1-.008.175l-.086.654.022.021-.221-.116c-.2-.111-.4-.226-.591-.35a.732.732,0,0,1-.12-.091c-.032-.064.132-.14.169-.159l-.054-.105-.2.113c-.169.1-.345.187-.523.268l-.207.1.053.1a.4.4,0,0,1,.148-.044m-1.963.711a1.085,1.085,0,0,1,.235-.049.2.2,0,0,1,.116.016.173.173,0,0,1,.077.074.824.824,0,0,1,.069.156l.6,1.725a.86.86,0,0,1,.044.169.182.182,0,0,1-.1.189,1.344,1.344,0,0,1-.216.1l.038.109c.086-.03.172-.06.257-.093l.184-.063c.1-.037.191-.07.289-.1l.182-.063c.089-.027.177-.057.265-.088l-.038-.108a1.493,1.493,0,0,1-.234.052.268.268,0,0,1-.116-.016.189.189,0,0,1-.077-.073.939.939,0,0,1-.07-.16l-.6-1.726a.862.862,0,0,1-.042-.165.167.167,0,0,1,.015-.1.216.216,0,0,1,.082-.084,1.145,1.145,0,0,1,.215-.107l-.038-.109c-.087.033-.174.065-.261.1-.215.084-.434.16-.654.227-.086.03-.174.058-.261.085Zm-2.919.622-.224.039.024.114a.388.388,0,0,1,.156-.005.324.324,0,0,1,.105.046.541.541,0,0,1,.116.087c.042.035.091.079.144.127l.856.826-.352.8a2.086,2.086,0,0,1-.1.209,1.127,1.127,0,0,1-.12.176.72.72,0,0,1-.153.136.794.794,0,0,1-.239.092l.025.115.228-.058c.049-.013.1-.026.154-.037a2.513,2.513,0,0,1,.249-.053c.042-.009.084-.016.12-.022l.171-.026-.025-.116a.43.43,0,0,1-.2.011c-.075-.027-.06-.1-.037-.159s.046-.109.073-.17l.352-.773-.019-.021c.106.093.212.187.316.283.068.059.136.119.2.18s.124.114.176.166.1.1.13.133a.251.251,0,0,1,.047.065c.013.062-.169.1-.205.107l.025.115.231-.059c.052-.013.106-.026.158-.037.09-.023.179-.043.271-.058.055-.011.11-.022.163-.031l.231-.04-.024-.114a.518.518,0,0,1-.171.007.67.67,0,0,1-.125-.044,1.076,1.076,0,0,1-.126-.081c-.042-.033-.084-.07-.128-.11l-.979-.887.355-.892a.789.789,0,0,1,.086-.174.483.483,0,0,1,.234-.192,1.961,1.961,0,0,1,.2-.068l-.025-.114-.2.053c-.186.05-.377.089-.567.121l-.231.041.025.116a.47.47,0,0,1,.148-.022.213.213,0,0,1,.081.017.1.1,0,0,1,.04.033.216.216,0,0,1,.029.175.92.92,0,0,1-.052.167l-.252.61.016.026-.184-.17c-.164-.159-.327-.321-.48-.491a.71.71,0,0,1-.092-.119c-.014-.069.163-.1.2-.109l-.025-.116-.224.057c-.188.05-.381.092-.574.123m-2.447.2c-.092.006-.183.011-.274.014l.008.116a1.078,1.078,0,0,1,.24.014.2.2,0,0,1,.107.045.17.17,0,0,1,.055.092.871.871,0,0,1,.026.169l.131,1.821a.886.886,0,0,1,0,.174.181.181,0,0,1-.142.158,1.326,1.326,0,0,1-.236.044l.008.114c.091-.006.182-.014.273-.023l.193-.014c.066-.007.117-.012.154-.015l1.123-.069.092-.007c.037,0,.076,0,.115,0h.12c.048,0,.1,0,.145,0,0-.131,0-.262,0-.393s.013-.267.022-.4l-.112.008a.9.9,0,0,1-.235.487,1.106,1.106,0,0,1-.776.17.369.369,0,0,1-.185-.056.311.311,0,0,1-.1-.151,1.375,1.375,0,0,1-.047-.3l-.114-1.584a.889.889,0,0,1,0-.17.181.181,0,0,1,.039-.1.21.21,0,0,1,.1-.06,1.177,1.177,0,0,1,.239-.048l-.008-.116c-.093.009-.185.018-.277.025-.229.025-.461.042-.691.05m-3.331,1.173a1.325,1.325,0,0,0,.757,1.392,1.741,1.741,0,0,0,.815.164c.08,0,.16-.005.238-.009s.151-.012.218-.015a1.1,1.1,0,0,1,.2,0l.073-.383c.028-.13.058-.26.091-.389l-.109-.011c-.052.1-.106.2-.166.289a.892.892,0,0,1-.175.21.646.646,0,0,1-.245.125.93.93,0,0,1-.684-.088,1.135,1.135,0,0,1-.5-.7,1.91,1.91,0,0,1,.106-1.147,1.034,1.034,0,0,1,.265-.343.854.854,0,0,1,.354-.174.89.89,0,0,1,.922.233.748.748,0,0,1,.115.229,2.754,2.754,0,0,1,.077.3l.108.011c.014-.258.041-.517.08-.773a1.622,1.622,0,0,1-.241-.039l-.2-.05a1.942,1.942,0,0,0-1.059-.056,1.429,1.429,0,0,0-.516.235,1.344,1.344,0,0,0-.362.417,1.5,1.5,0,0,0-.17.572m-2.935.137.524-1.969.049.008a.927.927,0,0,1,.117.024c.041.008.082.018.12.028a1.557,1.557,0,0,1,.524.207.982.982,0,0,1,.319.3,1,1,0,0,1,.153.44,1.556,1.556,0,0,1-.574,1.388,1.274,1.274,0,0,1-.958.041.372.372,0,0,1-.264-.17.434.434,0,0,1-.008-.3m-.921.193-.029.111c.09.024.181.047.272.069l.191.051c.1.023.2.048.3.079.054.014.11.031.164.047l.162.043a2.078,2.078,0,0,0,1.436.018,1.3,1.3,0,0,0,.66-.9,1.212,1.212,0,0,0-.162-1.113,2,2,0,0,0-1.108-.637c-.089-.021-.174-.042-.253-.063-.231-.053-.461-.113-.687-.183-.088-.023-.177-.049-.264-.075l-.03.112a1.1,1.1,0,0,1,.222.091.2.2,0,0,1,.087.078.169.169,0,0,1,.023.1.825.825,0,0,1-.03.168l-.469,1.765a.886.886,0,0,1-.058.164.182.182,0,0,1-.186.1,1.4,1.4,0,0,1-.237-.035m-4.127-1.932-.053.1c.06.03.12.06.181.087l.126.064c.079.036.157.075.233.118l.131.067c.061.034.123.066.185.1l.052-.1a1.525,1.525,0,0,1-.22-.142.156.156,0,0,1-.055-.107.42.42,0,0,1,.042-.171c.192-.44.721-1.438.778-1.55l-.049,2.392.128.065,1.885-1.573-.794,1.565c-.032.063-.061.114-.087.155a.185.185,0,0,1-.072.069.169.169,0,0,1-.094.008,1.057,1.057,0,0,1-.2-.071l-.052.1c.071.035.142.071.213.1l.149.076c.091.041.177.086.264.133l.172.087c.081.045.164.087.247.129l.052-.1a1.464,1.464,0,0,1-.2-.132.262.262,0,0,1-.069-.1.189.189,0,0,1,0-.105.973.973,0,0,1,.067-.162l.833-1.642a1.678,1.678,0,0,1,.084-.152.166.166,0,0,1,.069-.066.162.162,0,0,1,.1-.005,1.2,1.2,0,0,1,.215.078l.048-.1-.639-.324L506.87,40.8l.053-2.507-.664-.337-.048.1a1.2,1.2,0,0,1,.2.138.151.151,0,0,1,.054.119.535.535,0,0,1-.05.226c-.149.373-.633,1.28-.7,1.42a2.555,2.555,0,0,1-.146.258.458.458,0,0,1-.129.134.218.218,0,0,1-.135.037.678.678,0,0,1-.225-.069m-1.9-26.523h0Zm3.484,0h0Zm9.436,10.6h0v0Zm2.214,2.678.285.056a1.6,1.6,0,0,1,3.132,0l.285-.056a1.888,1.888,0,0,0-3.7,0m-4.712.056.285-.056a1.888,1.888,0,0,0-3.7,0l.285.056a1.6,1.6,0,0,1,3.132,0m4.712-5.573.285.057a1.6,1.6,0,0,1,3.132,0l.285-.057a1.888,1.888,0,0,0-3.7,0M513.6,21.6l.285-.057a1.887,1.887,0,0,0-3.7,0l.285.057a1.6,1.6,0,0,1,3.132,0m2.5-1.574h0a1.888,1.888,0,0,0-1.851,1.517l.285.057a1.6,1.6,0,0,1,3.131,0l.286-.057a1.889,1.889,0,0,0-1.851-1.517m0-1.37v0Zm-2.488-2.169.285-.056a2.1,2.1,0,0,0-3.724,0l.285.056a1.017,1.017,0,0,1,1-.815.638.638,0,0,0,.871.042,1,1,0,0,1,.29-.042,1.016,1.016,0,0,1,1,.815m3.068-3.573a.58.58,0,1,1-.58-.581.58.58,0,0,1,.58.581m.291,0a.871.871,0,1,0-.871.871.871.871,0,0,0,.871-.871m.706,3.573.285-.056a2.1,2.1,0,0,0-3.724,0l.284.056a1.017,1.017,0,0,1,1-.815.636.636,0,0,0,.87.042,1.017,1.017,0,0,1,1.287.773m4.065,0,.284-.056a2.1,2.1,0,0,0-3.724,0l.285.056a1.016,1.016,0,0,1,1-.815.637.637,0,0,0,.87.042,1.017,1.017,0,0,1,1.287.773m3.794-2.7h0Zm2.323,0h0Zm1.161,0h0ZM529.4,16h-.364a1.011,1.011,0,0,1,.231.41c.008.027.014.053.02.081l.285-.057c0-.008,0-.017,0-.024A1.3,1.3,0,0,0,529.4,16m-2.385.41c0,.008,0,.016-.005.024l.285.057c.005-.028.012-.055.019-.081h0a1.017,1.017,0,0,1,1.723-.41h.364a1.306,1.306,0,0,0-2.219,0,1.288,1.288,0,0,0-.167.41m-.662-.41h-.364a1.022,1.022,0,0,1,.232.41c.007.027.014.053.019.081l.284-.057,0-.024a1.29,1.29,0,0,0-.167-.41m-2.385.41-.005.024.285.057c.006-.028.012-.055.019-.081h0a1.018,1.018,0,0,1,.977-.735,1.012,1.012,0,0,1,.745.326h.364a1.306,1.306,0,0,0-2.385.41m2.271,5.6.285-.057a1.306,1.306,0,0,0-2.562,0l.284.057a1.017,1.017,0,0,1,1.993,0m3.049,0,.284-.057a1.306,1.306,0,0,0-2.562,0l.284.057a1.017,1.017,0,0,1,1.994,0m3.048,0,.285-.057a1.307,1.307,0,0,0-2.563,0l.285.057a1.016,1.016,0,0,1,1.992,0m-6.1,5.516.285-.056a1.306,1.306,0,0,0-2.562,0l.284.056a1.017,1.017,0,0,1,1.993,0m3.049,0,.284-.056a1.306,1.306,0,0,0-2.562,0l.284.056a1.017,1.017,0,0,1,1.994,0m-24.388,0,.285-.056a1.307,1.307,0,0,0-2.563,0l.285.056a1.016,1.016,0,0,1,1.993,0m3.048,0,.285-.056a1.306,1.306,0,0,0-2.562,0l.284.056a1.017,1.017,0,0,1,1.993,0M503.159,16h-.364a1.311,1.311,0,0,0-.167.41l0,.024.285.057a.8.8,0,0,1,.02-.081,1.01,1.01,0,0,1,.231-.41m1.742.491.285-.057-.006-.024a1.284,1.284,0,0,0-.167-.41,1.307,1.307,0,0,0-2.219,0h.364a1.017,1.017,0,0,1,1.722.41h0c.008.027.014.053.02.081M506.206,16h-.364a1.294,1.294,0,0,0-.167.41l-.005.024.285.057c.006-.028.012-.055.02-.081a1.017,1.017,0,0,1,.231-.41m1.742.491.285-.057-.005-.024a1.307,1.307,0,0,0-2.386-.41h.364a1.017,1.017,0,0,1,1.723.41h0c.008.027.014.053.02.081m-2.276,5.459.284.057a1.016,1.016,0,0,1,1.993,0l.285-.057a1.306,1.306,0,0,0-2.562,0m-3.049,0,.285.057a1.016,1.016,0,0,1,1.993,0l.285-.057a1.307,1.307,0,0,0-2.563,0m-3.049,0,.285.057a1.016,1.016,0,0,1,1.993,0l.285-.057a1.307,1.307,0,0,0-2.563,0m-.386,2.144q-.073-.789-.074-1.6a17.047,17.047,0,0,1,.388-3.629h9.337v-.29h-1.163v-.939h0v-.948a.722.722,0,0,0-.056-.281h-.337a.435.435,0,0,1,.1.281V18.58h-.871v-.939h0v-.948a.435.435,0,0,1,.768-.281h.337a.727.727,0,0,0-.445-.41h0a.721.721,0,0,0-.449,0,.725.725,0,0,0-.5.69V18.58h-1.6v-.939h0v-.948a.723.723,0,0,0-.056-.281h-.336a.434.434,0,0,1,.1.281V18.58h-.871v-.939h0v-.948a.436.436,0,0,1,.769-.281h.336a.729.729,0,0,0-.445-.41h0a.723.723,0,0,0-.45,0,.726.726,0,0,0-.5.69V18.58h-1.6v-.939h0v-.948a.723.723,0,0,0-.056-.281h-.336a.433.433,0,0,1,.1.281V18.58h-.871v-.939h0v-.948a.436.436,0,0,1,.769-.281h.336a.727.727,0,0,0-.444-.41h0a.726.726,0,0,0-.762.2q.095-.236.2-.468a1,1,0,0,1,.341-.06,1.017,1.017,0,0,1,.977.735h0c.008.027.014.053.02.081l.285-.057-.005-.024a1.306,1.306,0,0,0-1.467-1.012q.1-.227.215-.449h.993V14.37a.145.145,0,1,1,.29,0v.581h.871V14.37a.145.145,0,0,1,.29,0v.581h.871V14.37a.145.145,0,0,1,.291,0v.581h.871V14.37a.145.145,0,0,1,.29,0v.581h.871V14.37a.145.145,0,1,1,.29,0v.581h.871V14.37a.145.145,0,0,1,.29,0v.581h.871v3.628h0V24.1h-1.161V22.209a.726.726,0,0,0-1.452,0V24.1h-1.6V22.209a.726.726,0,0,0-1.452,0V24.1h-1.6V22.209a.726.726,0,1,0-1.451,0V24.1Zm1.232,0V22.209a.436.436,0,0,1,.871,0V24.1Zm3.049,0V22.209a.436.436,0,0,1,.871,0V24.1Zm3.048,0V22.209a.436.436,0,0,1,.871,0V24.1Zm-7.3.29h9.622v5.226h-1.162V27.725a.726.726,0,1,0-1.451,0v1.887h-1.6V27.725a.726.726,0,0,0-1.452,0v1.887h-1.6V27.725a.726.726,0,0,0-1.452,0V28.3q-.143-.393-.266-.794a1.016,1.016,0,0,1,1.988.02l.285-.056a1.307,1.307,0,0,0-2.4-.411,16.924,16.924,0,0,1-.515-2.671m1.2,4.656V27.725a.436.436,0,1,1,.871,0v1.887h-.62q-.131-.282-.251-.57m3.049.57V27.725a.436.436,0,1,1,.871,0v1.887Zm3.048,0V27.725a.436.436,0,0,1,.871,0v1.887Zm-5.709.29h8.031v.871h-7.578q-.239-.428-.454-.871m.62,1.162h6.685v3.193h-.436V32.37a.726.726,0,1,0-1.451,0v1.887h-1.6V32.37a.726.726,0,0,0-.726-.726.706.706,0,0,0-.147.015.726.726,0,0,0-.581.711v1.154a17.028,17.028,0,0,1-1.749-2.46m2.04,2.491h0V32.37a.436.436,0,0,1,.348-.427.422.422,0,0,1,.087-.009.436.436,0,0,1,.436.435v1.887h-.5q-.191-.2-.374-.4Zm3.048.7V32.37a.436.436,0,0,1,.871,0v1.887Zm-2.389.29h3.986v.871h-3.041q-.489-.418-.945-.871m4.712-2.613V36.29H508.4V31.064h.436Zm-3.418,3.774h2.692v.871h4.355v-.871h2.767v1.453h-1.025v.29h3.629v-.29h-.88V35.709h2.767v.871h4.355v-.871h2.691a16.985,16.985,0,0,1-21.351,0m21.7-.29h-3.041v-.871h3.986q-.456.453-.945.871m1.23-1.162h-.5V32.37a.435.435,0,0,1,.435-.435.421.421,0,0,1,.087.009.436.436,0,0,1,.348.427v1.185h0v.3q-.183.2-.374.4m-3.11-2.322a.435.435,0,0,1,.435.435v1.887h-.87V32.37a.435.435,0,0,1,.435-.435m3.194-.276a.7.7,0,0,0-.146-.015.726.726,0,0,0-.726.726v1.887h-1.6V32.37a.726.726,0,0,0-1.452,0v1.887h-.435V31.064h6.685a17.054,17.054,0,0,1-1.749,2.46V32.37a.726.726,0,0,0-.581-.711m-4.645-.6V36.29h-.435V31.064Zm7.142-.291h-7.577V29.9h8.031q-.215.443-.454.871m.591-1.161h-.62V27.725a.436.436,0,0,1,.871,0v1.317q-.12.288-.251.57m-3.233-2.323a.435.435,0,0,1,.435.436v1.887h-.871V27.725a.435.435,0,0,1,.435-.436m-3.049,0a.435.435,0,0,1,.435.436v1.887h-.87V27.725a.435.435,0,0,1,.435-.436m6.1-.29a.726.726,0,0,0-.726.726v1.887h-1.6V27.725a.726.726,0,1,0-1.451,0v1.887h-1.6V27.725a.726.726,0,1,0-1.452,0v1.887h-1.161V24.386h9.622a16.913,16.913,0,0,1-.515,2.671,1.307,1.307,0,0,0-2.4.412l.285.056a1.016,1.016,0,0,1,1.988-.02q-.123.4-.266.794v-.574A.726.726,0,0,0,531.34,27m0-5.226a.435.435,0,0,1,.436.435V24.1H530.9V22.209a.436.436,0,0,1,.436-.435m-3.048,0a.435.435,0,0,1,.435.435V24.1h-.871V22.209a.435.435,0,0,1,.435-.435m-3.049,0a.435.435,0,0,1,.435.435V24.1h-.87V22.209a.435.435,0,0,1,.435-.435m7.764,2.323h-.942V22.209a.726.726,0,1,0-1.452,0V24.1h-1.6V22.209a.726.726,0,1,0-1.451,0V24.1h-1.6V22.209a.726.726,0,1,0-1.452,0V24.1h-1.161V18.579h0V14.951h.871V14.37a.145.145,0,1,1,.29,0v.581h.871V14.37a.145.145,0,1,1,.29,0v.581h.871V14.37a.145.145,0,1,1,.291,0v.581h.87V14.37a.145.145,0,1,1,.29,0v.581h.871V14.37a.145.145,0,1,1,.29,0v.581h.871V14.37a.145.145,0,1,1,.29,0v.581h.992c.074.149.146.3.215.449a1.323,1.323,0,0,0-.191-.014,1.306,1.306,0,0,0-1.276,1.026c0,.008,0,.016-.005.025l.285.057c.005-.028.012-.055.02-.081h0a1.016,1.016,0,0,1,.977-.735,1,1,0,0,1,.341.06q.1.232.2.468a.725.725,0,0,0-.762-.2h0a.728.728,0,0,0-.445.41h.336a.436.436,0,0,1,.769.281v.949h0v.939H530.9V16.693a.437.437,0,0,1,.1-.281h-.336a.731.731,0,0,0-.056.281v.949h0v.939h-1.6V16.693a.725.725,0,0,0-.726-.726.715.715,0,0,0-.225.036h0a.727.727,0,0,0-.445.41h.336a.436.436,0,0,1,.666,0h0a.435.435,0,0,1,.1.281v.949h0v.939h-.871V16.693a.435.435,0,0,1,.1-.281h-.336a.718.718,0,0,0-.056.281v.949h0v.939h-1.6V16.693a.726.726,0,0,0-.95-.69h0a.728.728,0,0,0-.445.41h.337a.435.435,0,0,1,.768.281v.949h0v.939h-.87V16.693a.434.434,0,0,1,.1-.281h-.337a.724.724,0,0,0-.056.281v.949h0v.939h-1.162v.29h9.337a17.044,17.044,0,0,1,.389,3.629q0,.808-.075,1.6m-.38-5.516h-.561V16.7a16.756,16.756,0,0,1,.561,1.88m-1.458-3.92h-.554v-.29a.435.435,0,1,0-.871,0v.29h-.291v-.29a.435.435,0,1,0-.871,0v.29h-.29v-.29a.436.436,0,1,0-.871,0v.29h-.291v-.29a.435.435,0,1,0-.87,0v.29h-.291v-.29a.435.435,0,1,0-.871,0v.29h-.29v-.29a.436.436,0,1,0-.871,0v.29h-.29V13.644h6.947q.3.5.575,1.016m-.757-1.306h-6.766v-.435h6.477q.148.215.289.435m-.492-.726h-5.983V11.9h-1.922L516.1,6.722l-5.917,5.18h-1.922v.726h-5.983a16.986,16.986,0,0,1,27.644,0m-27.847.29h6.477v.435h-6.766c.095-.147.19-.292.289-.435m6.477-.29v-.435h1.741L516.1,7.108l5.807,5.084h1.741v.435h-1.923L516.1,7.7l-5.625,4.925Zm.29.29h1.016v1.742H508.84Zm.29,19.263V14.951h.436V32.225h-.436Zm0,.261h2.323v.363H509.13Zm0,.58h2.323v.363H509.13Zm0,.581h2.323v.363H509.13Zm0,.581h2.323v.363H509.13Zm0,.581h2.323v.363H509.13Zm0,.58h2.323v.363H509.13Zm2.323.944H509.13v-.363h2.323Zm1.016-4.8V31.1l1.016-.859v.388Zm0,2.767V31.832l1.016-.859v3.284Zm1.016,1.162h-1.016v-.871h1.016Zm-1.6-5.807h-.871V27.435a.436.436,0,0,1,.871,0ZM512.614,27a.436.436,0,0,1,.435.435v2.177h-.871V27.435a.436.436,0,0,1,.435-.435m-.581,0a.725.725,0,0,0-.581-.29.744.744,0,0,0-.145.014,1.016,1.016,0,0,1,1.451,0,.742.742,0,0,0-.145-.014.725.725,0,0,0-.581.29m6.677,3.633v-.388l1.016.859v.388Zm0,3.625V30.973l1.016.859v2.425Zm1.016,1.162h-1.016v-.871h1.016Zm1.451-7.984v2.177h-.871V27.435a.435.435,0,1,1,.871,0m-1.6-.435a.435.435,0,0,1,.435.435v2.177h-.871V27.435a.436.436,0,0,1,.436-.435m-.145-.276a1.016,1.016,0,0,1,1.451,0,.737.737,0,0,0-.145-.014.726.726,0,0,1-1.161,0,.739.739,0,0,0-.145.014m1.306,5.719h2.323v.363h-2.323Zm0,.58h2.323v.363h-2.323Zm0,.581h2.323v.363h-2.323Zm0,.581h2.323v.363h-2.323Zm0,.581h2.323v.363h-2.323Zm2.323,1.524h-2.323v-.363h2.323Zm-2.323-.943h2.323v.363h-2.323Zm2.323-20.395V32.225h-.435V14.951Zm-.726-2.032h1.016v1.742H522.34Zm-3.194,5.661V16.693a.435.435,0,0,1,.871,0V18.58Zm-2.9,0V16.693a.436.436,0,0,1,.871,0V18.58Zm4.471,0h-.407V16.693a.435.435,0,0,1,.871,0V18.58Zm-.7,5.516h-.871V21.919a.436.436,0,1,1,.871,0V24.1Zm.726-2.613a.436.436,0,0,1,.435.436V24.1h-.871V21.919a.436.436,0,0,1,.435-.436m-.581,0a.724.724,0,0,0-.581-.29.743.743,0,0,0-.145.014,1.016,1.016,0,0,1,1.451,0,.729.729,0,0,0-.725.276m-3.048.436V24.1h-.871V21.919a.436.436,0,1,1,.871,0m-1.6-.436a.436.436,0,0,1,.435.436V24.1h-.87V21.919a.435.435,0,0,1,.435-.436M511.888,24.1h-.871V21.919a.436.436,0,1,1,.871,0Zm.726-2.613a.436.436,0,0,1,.435.436V24.1h-.871V21.919a.436.436,0,0,1,.436-.436m-.581,0a.725.725,0,0,0-.581-.29.733.733,0,0,0-.145.014,1.016,1.016,0,0,1,1.451,0,.739.739,0,0,0-.145-.014.725.725,0,0,0-.581.29m3.484-5.226a.435.435,0,0,1,.435.435V18.58h-.87V16.693a.435.435,0,0,1,.435-.435m-2.9,0a.436.436,0,0,1,.435.435V18.58h-.871V16.693a.436.436,0,0,1,.436-.435m-1.161,0a.435.435,0,0,1,.435.435V18.58h-.871V16.693a.435.435,0,0,1,.436-.435m10.887-1.306V18.58h-.871V16.693a7.11,7.11,0,0,1-1.887-.726.726.726,0,0,0-.726.726V18.58H517.4V16.693a.725.725,0,0,0-1.306-.435V18.87h6.242V24.1h-.871V21.919a1.306,1.306,0,1,0-2.613,0c0,1.887,0,2.177,0,2.177H517.4V21.919a1.306,1.306,0,1,0-2.612,0V24.1H513.34V21.919a1.307,1.307,0,0,0-2.613,0V24.1h-.871V18.87H516.1V16.257a.726.726,0,0,0-1.307.435V18.58h-1.452V16.693a7.139,7.139,0,0,1-1.888-.726.726.726,0,0,0-.726.726V18.58h-.871V14.951h.29v-.83a.15.15,0,0,1,.146-.113.145.145,0,0,1,.145.145v.436h.871V13.136a.145.145,0,1,1,.29,0v.435h.871V12.12a.145.145,0,0,1,.29,0v.436h.872V11.1a.145.145,0,1,1,.29,0v.435h.872V10.088a.145.145,0,0,1,.291,0v.436h.871V9.072a.145.145,0,0,1,.291,0v1.452h.872v-.436a.145.145,0,1,1,.29,0V11.54h.872V11.1a.145.145,0,0,1,.29,0v1.452h.871V12.12a.145.145,0,0,1,.291,0v1.452h.871v-.435a.145.145,0,1,1,.29,0v1.452h.871v-.436a.145.145,0,0,1,.29-.016v.814Zm-11.322-1.815V14.3h-.291v-.145a.435.435,0,0,0-.436-.435.459.459,0,0,0-.146.024v-.822h.436L516.1,8.09l5.516,4.829h.436v.822a.443.443,0,0,0-.145-.024.435.435,0,0,0-.435.435V14.3h-.291V13.136a.435.435,0,1,0-.871,0v.145h-.291V12.12a.436.436,0,0,0-.871,0v.145h-.29V11.1a.435.435,0,1,0-.871,0v.145h-.29V10.088a.435.435,0,1,0-.871,0v.145h-.29V9.072a.436.436,0,1,0-.871,0v1.161h-.29v-.145a.435.435,0,1,0-.871,0v1.161h-.29V11.1a.435.435,0,1,0-.871,0v1.161h-.291V12.12a.436.436,0,0,0-.871,0v1.162h-.29v-.145a.435.435,0,1,0-.871,0m9.434,17.928V36.29h-.436V31.064Zm-.711-.291-1.031-.871h3.628v2.322h-1.6V30.773Zm-1.549,3.611v-.852h-.209V29.9h.436v5.516h-.436v-.99Zm-1.948-2.342.574.29-.059.91h-1.325l-.059-.91.574-.29-.266-.612.413-.315.413.315Zm-1.445,1.2v.29h-.3v-2.9h3.194v2.9h-.3v-.29h-.362l.07-1.072-.505-.255.248-.571-.748-.57-.748.57.249.571-.506.255.07,1.072Zm2.894-3.34v.436H514.5V29.9h3.194Zm-.58-.29h-.145V27.289h.29v2.323Zm-1.452-2.323V27h-.145a.58.58,0,1,1,1.161,0h-.145v.29h.145v2.323h-1.161V27.29Zm-.436,0v2.323h-.29V27.29Zm-.435-.29v-.726L516.1,25.3l1.306.972V27h-.435a.871.871,0,0,0-1.742,0Zm2.9,7.492v.927h-.735v-.769Zm-1.007,2.669h-1.18V34.675h1.18Zm-2.414-3V33.8h.8v-.29h2.051v.29h.8v.36l-1.112.239h-1.423Zm.227.818v-.491l.735.158v.769H514.5Zm-1.161-5.371V27.435a1.306,1.306,0,0,0-2.613,0v2.177h-.871V24.386H516.1v-2.9a.725.725,0,0,0-.581-.29.743.743,0,0,0-.145.014,1.017,1.017,0,0,1,1.452,0,.746.746,0,0,0-.145-.014.724.724,0,0,0-.58.29v2.9h6.242v5.226h-.871V27.435a1.306,1.306,0,1,0-2.612,0v2.177H517.55V27.289h.29V27H517.7v-.581h.29v-.29h-.29l-1.452-1.109v-.343h-.29v.343L514.5,26.128h-.29v.29h.29V27h-.145v.29h.289v2.323H513.34Zm.662,3.92v.852l.209.045v.989h-.436V29.9h.436v3.63Zm-1.823-1.6V36.29h-.436V31.064h.436Zm-.726-1.162v1.452h-1.6V29.9h3.628l-1.031.87ZM501.6,13.645h6.947v1.016h-.29v-.29a.436.436,0,0,0-.871,0v.29h-.29v-.29a.436.436,0,1,0-.871,0v.29h-.29v-.29a.435.435,0,1,0-.871,0v.29h-.29v-.29a.436.436,0,0,0-.871,0v.29h-.29v-.29a.436.436,0,0,0-.871,0v.29h-.29v-.29a.435.435,0,1,0-.871,0v.29h-.554q.27-.519.575-1.016m-1.472,4.936h-.562a16.758,16.758,0,0,1,.562-1.88v1.88ZM498.7,22.492a17.4,17.4,0,1,0,17.4-17.4,17.4,17.4,0,0,0-17.4,17.4m1.638,13.769-.079.08c.058.054.116.108.172.164.04.036.08.075.12.115.108.107.219.214.323.327.059.059.116.118.173.179l.08-.08a2.326,2.326,0,0,1-.188-.23.189.189,0,0,1-.038-.138.331.331,0,0,1,.064-.176,1.516,1.516,0,0,1,.217-.258,6.072,6.072,0,0,1,1.042-.963.794.794,0,0,1,.31-.084.663.663,0,0,1,.289.056.983.983,0,0,1,.439.423.545.545,0,0,1,.067.261.673.673,0,0,1-.079.292,1.406,1.406,0,0,1-.26.337l-.922.925a.88.88,0,0,1-.13.111.167.167,0,0,1-.1.033.214.214,0,0,1-.112-.036,1.137,1.137,0,0,1-.19-.146l-.08.08c.067.064.135.128.2.193.169.157.334.321.491.489.065.065.128.131.191.2l.08-.08a1.1,1.1,0,0,1-.147-.189.2.2,0,0,1-.037-.111.172.172,0,0,1,.033-.1.843.843,0,0,1,.11-.13l1.029-1.033a.923.923,0,0,0,.205-.289.769.769,0,0,0,.06-.277.709.709,0,0,0-.042-.259,1.307,1.307,0,0,0-.112-.225,1.716,1.716,0,0,0-.143-.191,1.816,1.816,0,0,0-.409-.358.841.841,0,0,0-.742-.082,1.1,1.1,0,0,0-.425.283l-.744.747a1.312,1.312,0,0,1-.407.318.154.154,0,0,1-.118-.021,1.47,1.47,0,0,1-.191-.152m-2.247-3.108-.1.066c.043.057.085.116.125.175.118.156.228.32.33.487.044.065.086.13.127.2l.1-.065a1.321,1.321,0,0,1-.126-.241.166.166,0,0,1,0-.132.347.347,0,0,1,.111-.146,2.966,2.966,0,0,1,.264-.2l1.09-.736.014-.043-.663,2.719.316.466.1-.064a1.149,1.149,0,0,1-.113-.221.148.148,0,0,1,.011-.129.532.532,0,0,1,.154-.174c.308-.252,1.17-.81,1.3-.9a2.623,2.623,0,0,1,.253-.154.467.467,0,0,1,.178-.055.221.221,0,0,1,.137.033.679.679,0,0,1,.163.17l.1-.064c-.038-.055-.075-.111-.116-.164l-.079-.117c-.055-.073-.105-.148-.153-.226l-.1-.144c-.043-.07-.088-.137-.135-.2l-.095.064a1.65,1.65,0,0,1,.123.229.194.194,0,0,1,0,.136.363.363,0,0,1-.106.148,2.476,2.476,0,0,1-.268.2l-1.082.731-.016.043.69-2.778-.064-.094-1.733,1.173a2.348,2.348,0,0,1-.25.152.506.506,0,0,1-.178.06.222.222,0,0,1-.134-.035.655.655,0,0,1-.168-.171m-.9-1.746-.1.053c.045.081.089.163.132.245.112.2.219.408.315.617.042.081.082.164.121.246l.1-.053a1.107,1.107,0,0,1-.081-.226.206.206,0,0,1,0-.117.172.172,0,0,1,.063-.086.908.908,0,0,1,.145-.09l1.626-.832a.89.89,0,0,1,.161-.066.181.181,0,0,1,.2.068,1.336,1.336,0,0,1,.133.2l.1-.053c-.041-.081-.084-.162-.128-.242l-.088-.172c-.05-.09-.1-.179-.139-.273l-.089-.172c-.039-.084-.081-.167-.124-.249l-.1.052a1.439,1.439,0,0,1,.085.224.256.256,0,0,1,0,.117.182.182,0,0,1-.062.086.922.922,0,0,1-.149.092l-1.626.832a.829.829,0,0,1-.158.065.166.166,0,0,1-.105,0,.214.214,0,0,1-.1-.069,1.146,1.146,0,0,1-.136-.2M496,28.371l-.106.039c.022.051.044.1.063.155a4.1,4.1,0,0,1,.174.475c.023.064.044.129.065.194l.11-.04a.354.354,0,0,1-.029-.215c.028-.08.1-.091.169-.1q.062,0,.164,0c.067,0,1.748.021,1.748.021l.044-.025q-.616.536-1.231,1.07c-.134.115-.232.2-.3.25,0,0-.107.1-.136.081a.133.133,0,0,1-.041-.046.622.622,0,0,1-.04-.09c-.022-.049-.041-.1-.059-.15l-.111.04c.031.08.063.159.093.239.077.187.15.379.21.573.026.069.049.14.072.211l.108-.039a.658.658,0,0,1-.029-.151.124.124,0,0,1,.013-.072.294.294,0,0,1,.068-.084c.034-.036.08-.081.139-.133l1.87-1.683-.06-.162-2.252-.04c-.124,0-.226-.006-.307-.013a.687.687,0,0,1-.19-.039.287.287,0,0,1-.118-.082.718.718,0,0,1-.107-.186m-.515-2.588-.195.031a2.546,2.546,0,0,1,.082.259c.009.039.018.076.028.112.045.213.09.425.141.637.02.094.04.183.061.268.039.183.082.366.115.551.02.089.036.179.053.269l.106-.023a1.094,1.094,0,0,1-.02-.239.2.2,0,0,1,.03-.113.168.168,0,0,1,.082-.067.821.821,0,0,1,.163-.05l1.794-.385a.958.958,0,0,1,.173-.023.181.181,0,0,1,.176.118,1.262,1.262,0,0,1,.076.228l.112-.024c-.019-.09-.039-.179-.061-.267l-.04-.189q-.025-.1-.036-.151l-.225-1.1-.02-.09c-.006-.037-.012-.074-.02-.113s-.013-.08-.018-.119-.01-.1-.016-.143l-.39.049c-.133.014-.266.024-.4.034l.023.11a1.454,1.454,0,0,1,.321.058.593.593,0,0,1,.2.109.582.582,0,0,1,.136.173,1.64,1.64,0,0,1,.13.572.383.383,0,0,1-.043.194.334.334,0,0,1-.15.119,7.284,7.284,0,0,1-.868.208,2.673,2.673,0,0,1-.087-.506.413.413,0,0,1,.025-.176.228.228,0,0,1,.087-.11.632.632,0,0,1,.214-.09l-.025-.113-.235.059-.154.04-.238.051-.153.025L496.2,26l.024.112a.569.569,0,0,1,.207,0,.332.332,0,0,1,.148.07.539.539,0,0,1,.125.16,1.874,1.874,0,0,1,.135.474l-1.087.233a3.143,3.143,0,0,1-.106-.683.694.694,0,0,1,.052-.288.4.4,0,0,1,.14-.172,2.663,2.663,0,0,1,.253-.157l-.023-.106-.223.057-.358.077m-.048-2.5a.757.757,0,0,1,.688-.133.515.515,0,0,1,.191.1.529.529,0,0,1,.142.181.962.962,0,0,1,.061.425,1.057,1.057,0,0,1-.014.116l-1.194.04c0-.02-.006-.041-.01-.064s-.008-.067-.012-.105a.618.618,0,0,1,.147-.563m-.263-.087a2.7,2.7,0,0,0-.028.914c.006.16.014.32.014.48,0,.092,0,.184.005.275l.115,0a1.12,1.12,0,0,1,.022-.239.194.194,0,0,1,.049-.106.168.168,0,0,1,.093-.052.82.82,0,0,1,.169-.021l1.825-.067a.891.891,0,0,1,.174.007.184.184,0,0,1,.153.146,1.385,1.385,0,0,1,.035.238l.114,0c0-.091-.007-.183-.013-.274l-.007-.193c-.007-.1-.012-.2-.011-.3l-.006-.175c0-.082,0-.163-.005-.245l-.115,0a1.17,1.17,0,0,1-.018.226.174.174,0,0,1-.046.082.2.2,0,0,1-.093.036c-.3.026-.644.027-.923.037,0-.019,0-.036.006-.051s0-.057,0-.082a.723.723,0,0,1,0-.075l0-.07.944-.729a.891.891,0,0,0,.11-.1.381.381,0,0,0,.074-.153,2.855,2.855,0,0,0,.024-.691l-.111,0a1.125,1.125,0,0,1-.022.131c-.006.029-.014.062-.025.1a.528.528,0,0,1-.052.1.693.693,0,0,1-.152.163c-.086.072-.184.151-.295.236l-.35.265c-.1.074-.195.145-.279.213a1.051,1.051,0,0,0-.124-.268.994.994,0,0,0-.093-.116.56.56,0,0,0-.128-.107.635.635,0,0,0-.16-.069.714.714,0,0,0-.482.04.618.618,0,0,0-.24.179.839.839,0,0,0-.156.309m.32-3.281-.2-.026-.007.081a.936.936,0,0,1-.03.15l-.042.135c-.014.047-.027.1-.039.152a1.206,1.206,0,0,0,0,.539.968.968,0,0,0,.119.294.7.7,0,0,0,.211.211.69.69,0,0,0,.558.072.771.771,0,0,0,.221-.127,1.447,1.447,0,0,0,.2-.213q.1-.126.212-.288t.189-.254a.864.864,0,0,1,.157-.162.409.409,0,0,1,.14-.081.525.525,0,0,1,.344.027.4.4,0,0,1,.148.094.42.42,0,0,1,.1.164.782.782,0,0,1-.059.539.715.715,0,0,1-.171.193.9.9,0,0,1-.229.123,2.215,2.215,0,0,1-.287.083l-.01.112a3.967,3.967,0,0,1,.4-.006q.2,0,.39.013a1.251,1.251,0,0,1,.034-.223l.035-.153a1.562,1.562,0,0,0,.048-.748,1.051,1.051,0,0,0-.127-.336.777.777,0,0,0-.233-.247.689.689,0,0,0-.583-.089.6.6,0,0,0-.214.125,1.3,1.3,0,0,0-.2.224c-.07.089-.15.2-.24.32q-.118.163-.2.262a1.087,1.087,0,0,1-.157.148.311.311,0,0,1-.12.06.532.532,0,0,1-.291-.032.47.47,0,0,1-.14-.084.367.367,0,0,1-.089-.132.568.568,0,0,1,.058-.457.5.5,0,0,1,.163-.166.745.745,0,0,1,.227-.09,2.48,2.48,0,0,1,.293-.055l.009-.111-.234-.011-.192-.016Zm.267-2.26-.113-.024c-.017.091-.033.182-.053.273-.039.227-.086.454-.143.677-.019.09-.04.179-.061.268l.113.024a1.094,1.094,0,0,1,.079-.226.2.2,0,0,1,.073-.091.173.173,0,0,1,.1-.028.858.858,0,0,1,.17.021l1.788.376a.9.9,0,0,1,.167.05.181.181,0,0,1,.113.179,1.4,1.4,0,0,1-.022.239l.112.024c.019-.089.037-.18.053-.27l.04-.188c.017-.1.038-.2.063-.3l.04-.188c.022-.09.042-.181.061-.272l-.112-.024a1.515,1.515,0,0,1-.076.227.251.251,0,0,1-.074.091.183.183,0,0,1-.1.027.921.921,0,0,1-.173-.022l-1.787-.376a.858.858,0,0,1-.164-.049.167.167,0,0,1-.082-.067.213.213,0,0,1-.031-.113,1.164,1.164,0,0,1,.018-.239m1.583-2.769-.238-.072-.364-.125-.183-.073a2.592,2.592,0,0,1-.063.264c-.013.037-.024.074-.034.11-.053.155-.109.31-.156.468l-.054.157-.108.316-.053.153c-.05.127-.092.257-.136.386l-.03.087q-.021.052-.042.111l-.045.109a1.5,1.5,0,0,1-.066.135c.063.018.126.037.189.058.123.036.243.08.363.125.079.027.156.055.234.085l.035-.1a2.8,2.8,0,0,1-.254-.192.59.59,0,0,1-.137-.179.485.485,0,0,1-.041-.229,1.531,1.531,0,0,1,.109-.439q.155.047.334.108c.564.182,1.129.382,1.687.574a.9.9,0,0,1,.16.069.186.186,0,0,1,.074.077.233.233,0,0,1,.016.115,1.37,1.37,0,0,1-.051.234l.108.037q.045-.13.086-.26l.062-.183c.03-.1.063-.194.1-.29l.063-.182c.033-.087.064-.175.093-.263l-.108-.037a1.541,1.541,0,0,1-.1.22.262.262,0,0,1-.083.081.2.2,0,0,1-.1.012.931.931,0,0,1-.169-.043l-1.317-.451-.369-.126c-.118-.043-.228-.084-.328-.122a1.484,1.484,0,0,1,.185-.42.44.44,0,0,1,.168-.142.606.606,0,0,1,.219-.058,2.222,2.222,0,0,1,.319,0Zm1.509-1.342a6.418,6.418,0,0,1-.344.689l-.714-.81-.04-.012.173.022c.221.023.443.047.663.079l.263.032m.975-.333-2.477-.271-.078.154,1.48,1.714c.072.086.132.163.179.231a.808.808,0,0,1,.1.177.43.43,0,0,1,.025.16.64.64,0,0,1-.061.209l.1.05c.025-.05.05-.1.072-.151l.052-.1a2.423,2.423,0,0,1,.113-.224l.069-.136c.035-.062.068-.126.1-.19l-.1-.053c-.032.06-.067.142-.132.171a.128.128,0,0,1-.157-.039c-.024-.023-.057-.058-.1-.1s-.094-.109-.158-.18l-.223-.255c.022-.043.032-.064.054-.112l.075-.151c.042-.093.157-.311.213-.409.022-.043.042-.081.06-.11l.013-.025.273.036c.1.012.191.023.274.035s.155.019.213.029a.687.687,0,0,1,.086.014c.012,0,.017.011.019.023a.126.126,0,0,1-.007.057c-.008.027-.021.058-.035.093l-.073.144.1.053c.037-.073.074-.146.108-.221l.077-.152c.038-.084.08-.166.125-.247l.076-.149c.039-.07.076-.141.112-.213l-.1-.052a1.059,1.059,0,0,1-.088.139.218.218,0,0,1-.074.052.365.365,0,0,1-.114.019,1.531,1.531,0,0,1-.19-.016m1.451-1.387a1.051,1.051,0,0,0,.059-.354.775.775,0,0,0-.079-.331.689.689,0,0,0-.46-.369.6.6,0,0,0-.247,0,1.313,1.313,0,0,0-.287.092q-.158.063-.369.156-.182.083-.307.126a1.155,1.155,0,0,1-.21.051.313.313,0,0,1-.133-.009.527.527,0,0,1-.236-.174.457.457,0,0,1-.08-.142.369.369,0,0,1-.011-.159.564.564,0,0,1,.279-.367.484.484,0,0,1,.224-.063.727.727,0,0,1,.242.036,2.485,2.485,0,0,1,.281.1l.064-.091-.2-.125-.285-.2-.156-.12-.046.067a1,1,0,0,1-.1.115l-.1.1c-.035.034-.072.071-.11.112a1.213,1.213,0,0,0-.272.465.938.938,0,0,0-.045.315.7.7,0,0,0,.077.288.69.69,0,0,0,.447.341.778.778,0,0,0,.254,0,1.457,1.457,0,0,0,.283-.083q.147-.061.328-.144c.111-.051.208-.093.29-.126a.859.859,0,0,1,.217-.062.409.409,0,0,1,.162,0,.521.521,0,0,1,.284.2.4.4,0,0,1,.081.155.428.428,0,0,1,0,.192.78.78,0,0,1-.321.437.729.729,0,0,1-.245.082.918.918,0,0,1-.259-.008,2.178,2.178,0,0,1-.29-.072l-.064.092a3.9,3.9,0,0,1,.347.193q.167.1.332.207a1.109,1.109,0,0,1,.141-.176c.037-.04.072-.079.107-.114a1.573,1.573,0,0,0,.415-.624m1.562-4.531.082-.075-.165-.165-.13-.142-.105-.114-.126-.151-.06.055a.894.894,0,0,1-.124.089l-.122.072c-.042.025-.086.053-.132.085a1.2,1.2,0,0,0-.367.395.941.941,0,0,0-.111.3.7.7,0,0,0,.013.3.686.686,0,0,0,.363.43.775.775,0,0,0,.248.055,1.493,1.493,0,0,0,.293-.02c.1-.019.222-.042.352-.07s.223-.046.311-.06a.86.86,0,0,1,.225-.014.407.407,0,0,1,.158.036.523.523,0,0,1,.235.252.4.4,0,0,1,.045.17.429.429,0,0,1-.039.187.783.783,0,0,1-.409.357.722.722,0,0,1-.256.027.91.91,0,0,1-.252-.063,2.151,2.151,0,0,1-.268-.133l-.083.077a3.95,3.95,0,0,1,.3.264c.094.09.186.181.279.274a1.184,1.184,0,0,1,.175-.142l.129-.089a1.563,1.563,0,0,0,.541-.519,1.058,1.058,0,0,0,.134-.333.77.77,0,0,0-.005-.34.691.691,0,0,0-.369-.46.593.593,0,0,0-.242-.053,1.328,1.328,0,0,0-.3.028c-.111.018-.243.043-.393.073-.131.027-.24.046-.327.056a1.15,1.15,0,0,1-.216,0,.308.308,0,0,1-.129-.037.532.532,0,0,1-.193-.221.474.474,0,0,1-.046-.156.361.361,0,0,1,.023-.158.567.567,0,0,1,.352-.3.491.491,0,0,1,.232-.012.739.739,0,0,1,.229.087,2.572,2.572,0,0,1,.254.157m1.62-1.671q-.107-.155-.2-.291a1.49,1.49,0,0,1,.394-.234.445.445,0,0,1,.219-.018.606.606,0,0,1,.212.08,2.294,2.294,0,0,1,.259.186l.089-.063-.152-.2-.132-.184-.092-.129-.107-.166a2.447,2.447,0,0,1-.2.179c-.032.023-.063.046-.092.07-.133.1-.269.189-.4.29l-.407.291-.132.094c-.114.075-.224.156-.335.236l-.075.053c-.032.02-.064.042-.1.066l-.1.062a1.391,1.391,0,0,1-.132.071c.041.052.082.1.12.157.08.1.153.206.224.313.048.067.095.136.14.205l.089-.064a2.65,2.65,0,0,1-.1-.3.6.6,0,0,1-.008-.225.5.5,0,0,1,.1-.21,1.527,1.527,0,0,1,.344-.294c.066.085.136.179.208.281.354.476.7.966,1.04,1.446a.856.856,0,0,1,.09.149.184.184,0,0,1,.016.105.233.233,0,0,1-.053.1,1.314,1.314,0,0,1-.178.161l.067.093c.074-.053.148-.107.221-.162l.157-.113c.082-.063.163-.122.249-.179l.157-.112c.077-.052.153-.105.229-.159l-.067-.093a1.477,1.477,0,0,1-.212.119.258.258,0,0,1-.116.018.193.193,0,0,1-.091-.051.884.884,0,0,1-.113-.133l-.811-1.131Zm4.182.037a.882.882,0,0,0,.091-.388,1.1,1.1,0,0,0-.126-.5l-.455-.95a1.305,1.305,0,0,1-.164-.49.157.157,0,0,1,.059-.1,1.474,1.474,0,0,1,.207-.13L508.21,3c-.07.037-.141.073-.212.107-.048.025-.1.051-.148.075-.137.066-.276.135-.416.2-.075.036-.151.069-.226.1l.048.1a2.369,2.369,0,0,1,.28-.1.189.189,0,0,1,.143.01.329.329,0,0,1,.145.119,1.546,1.546,0,0,1,.171.291,6.088,6.088,0,0,1,.559,1.3.792.792,0,0,1-.024.32.667.667,0,0,1-.15.254.988.988,0,0,1-.546.273.545.545,0,0,1-.268-.024.675.675,0,0,1-.249-.172,1.4,1.4,0,0,1-.231-.357l-.565-1.178a.843.843,0,0,1-.061-.16.169.169,0,0,1,0-.106.218.218,0,0,1,.072-.093,1.157,1.157,0,0,1,.2-.13l-.048-.1c-.082.043-.165.085-.249.125-.2.108-.413.208-.624.3-.083.039-.166.077-.25.114l.048.1a1.1,1.1,0,0,1,.228-.075.206.206,0,0,1,.117,0,.174.174,0,0,1,.085.065.831.831,0,0,1,.086.148l.63,1.315a.917.917,0,0,0,.2.29.773.773,0,0,0,.241.149.714.714,0,0,0,.258.046,1.244,1.244,0,0,0,.25-.03,1.565,1.565,0,0,0,.227-.071,1.816,1.816,0,0,0,.475-.266.9.9,0,0,0,.234-.285m2.919-1.266a1.28,1.28,0,0,1-.805.521.374.374,0,0,1-.315-.013.435.435,0,0,1-.157-.253l-.549-1.963.046-.018a1.167,1.167,0,0,1,.114-.039c.039-.013.079-.026.117-.037a1.558,1.558,0,0,1,.556-.087.976.976,0,0,1,.428.1,1.006,1.006,0,0,1,.355.3,1.555,1.555,0,0,1,.21,1.488m.387-.016a1.3,1.3,0,0,0,.113-1.107,1.216,1.216,0,0,0-.7-.876,2,2,0,0,0-1.279.013c-.087.027-.171.051-.249.073-.226.072-.455.136-.685.192-.088.024-.177.047-.266.069l.031.111a1.092,1.092,0,0,1,.238-.034.2.2,0,0,1,.114.023.172.172,0,0,1,.072.078.8.8,0,0,1,.059.16l.492,1.759a.9.9,0,0,1,.033.171.181.181,0,0,1-.107.183,1.322,1.322,0,0,1-.223.09l.031.111c.09-.025.181-.051.27-.08l.19-.053c.1-.031.2-.06.3-.082.055-.015.111-.03.165-.043l.162-.045a2.081,2.081,0,0,0,1.247-.712m1.866.038c.093-.009.185-.021.277-.033l-.016-.114a1.466,1.466,0,0,1-.239.005.27.27,0,0,1-.111-.039.182.182,0,0,1-.06-.087.888.888,0,0,1-.037-.171l-.242-1.809a.816.816,0,0,1-.009-.17.169.169,0,0,1,.035-.1.217.217,0,0,1,.1-.067,1.177,1.177,0,0,1,.232-.062l-.015-.115c-.091.015-.183.029-.275.042-.227.039-.457.07-.686.092-.091.012-.181.022-.272.032l.015.114a1.114,1.114,0,0,1,.239,0,.2.2,0,0,1,.111.039.169.169,0,0,1,.06.088.873.873,0,0,1,.037.167l.242,1.81a.94.94,0,0,1,.009.174.182.182,0,0,1-.131.166,1.351,1.351,0,0,1-.233.058l.015.114c.09-.012.181-.025.271-.04l.192-.026c.1-.017.2-.031.3-.041Zm3.058-.952a1.219,1.219,0,0,1-.2.4.806.806,0,0,1-.292.232.833.833,0,0,1-.726-.016.926.926,0,0,1-.308-.255,1.28,1.28,0,0,1-.206-.408,1.988,1.988,0,0,1,.007-1.092,1.193,1.193,0,0,1,.207-.383.791.791,0,0,1,.292-.221.836.836,0,0,1,.713.016.869.869,0,0,1,.308.244,1.114,1.114,0,0,1,.209.393,1.937,1.937,0,0,1,0,1.093m.45-.026a1.583,1.583,0,0,0,0-1.205,1.165,1.165,0,0,0-.316-.413,1.29,1.29,0,0,0-.454-.244,1.637,1.637,0,0,0-1.078.016,1.337,1.337,0,0,0-.457.3,1.4,1.4,0,0,0-.313.464,1.6,1.6,0,0,0,.008,1.232,1.275,1.275,0,0,0,.331.424,1.374,1.374,0,0,0,.45.24,1.62,1.62,0,0,0,1.059-.027,1.386,1.386,0,0,0,.77-.781m1.971-.317a.967.967,0,0,1-.429-.017c-.036-.01-.074-.021-.111-.035l.177-1.18.065,0,.105.008a.617.617,0,0,1,.527.247.758.758,0,0,1,.006.7.514.514,0,0,1-.137.169.546.546,0,0,1-.2.106m1.138,1.618.016-.11a1.08,1.08,0,0,1-.125-.045c-.027-.011-.057-.025-.091-.042a.5.5,0,0,1-.087-.069.7.7,0,0,1-.132-.179q-.083-.146-.179-.332l-.2-.393q-.083-.17-.159-.313a1.027,1.027,0,0,0,.285-.073.968.968,0,0,0,.131-.07A.574.574,0,0,0,520.029,3a.623.623,0,0,0,.1-.145.709.709,0,0,0,.048-.482.614.614,0,0,0-.132-.268.847.847,0,0,0-.275-.21,2.719,2.719,0,0,0-.894-.195c-.159-.023-.318-.044-.475-.074-.091-.014-.181-.029-.271-.045l-.017.115a1.085,1.085,0,0,1,.231.065.206.206,0,0,1,.1.068.173.173,0,0,1,.034.1.838.838,0,0,1-.011.17l-.266,1.807a.907.907,0,0,1-.039.17.182.182,0,0,1-.173.124,1.347,1.347,0,0,1-.239-.008l-.017.114c.091.013.181.026.272.036l.192.028c.1.011.195.024.292.043l.172.025c.08.015.161.028.242.04l.017-.113a1.185,1.185,0,0,1-.219-.059.173.173,0,0,1-.072-.061.187.187,0,0,1-.018-.1c.029-.3.09-.637.131-.914l.049.016.079.019a.719.719,0,0,1,.073.014l.07.01.544,1.062a.915.915,0,0,0,.076.126.39.39,0,0,0,.137.1,2.835,2.835,0,0,0,.675.15m3.589-1.593.035-.107c-.076-.022-.152-.045-.227-.07-.052-.015-.105-.031-.159-.049-.145-.049-.292-.094-.435-.149-.079-.026-.157-.055-.234-.083l-.036.106a2.512,2.512,0,0,1,.271.122.193.193,0,0,1,.1.106.332.332,0,0,1,.021.186,1.564,1.564,0,0,1-.079.328,6.076,6.076,0,0,1-.5,1.326.8.8,0,0,1-.24.213.66.66,0,0,1-.284.079.983.983,0,0,1-.581-.182.546.546,0,0,1-.176-.2.665.665,0,0,1-.06-.3,1.414,1.414,0,0,1,.082-.418l.412-1.24A.807.807,0,0,1,522,2.655a.164.164,0,0,1,.075-.074.217.217,0,0,1,.116-.017,1.131,1.131,0,0,1,.235.045l.036-.106q-.134-.04-.266-.083c-.221-.064-.441-.137-.657-.218-.087-.029-.173-.06-.259-.091l-.036.106a1.092,1.092,0,0,1,.216.1.2.2,0,0,1,.082.083.172.172,0,0,1,.016.105.849.849,0,0,1-.041.166l-.46,1.384a.928.928,0,0,0-.055.35.774.774,0,0,0,.07.275.712.712,0,0,0,.154.213,1.225,1.225,0,0,0,.2.152,1.523,1.523,0,0,0,.213.107,1.8,1.8,0,0,0,.525.139.9.9,0,0,0,.367-.042.891.891,0,0,0,.334-.216,1.107,1.107,0,0,0,.254-.443l.333-1a1.3,1.3,0,0,1,.222-.466.157.157,0,0,1,.115-.034,1.432,1.432,0,0,1,.238.051m3.848,2.094.054-.092-.64-.375L525.346,6.2l-.011.038.207-2.5-.643-.377-.054.093a1.18,1.18,0,0,1,.2.151.152.152,0,0,1,.046.122.529.529,0,0,1-.064.223c-.17.363-.709,1.239-.789,1.375a2.431,2.431,0,0,1-.162.247.459.459,0,0,1-.137.126.216.216,0,0,1-.137.029.675.675,0,0,1-.22-.083l-.058.1c.057.034.115.067.174.1l.122.072c.078.041.153.085.226.132l.128.075c.058.038.14.086.2.122l.058-.1a1.588,1.588,0,0,1-.211-.155.158.158,0,0,1-.048-.11.415.415,0,0,1,.053-.168c.2-.387.7-1.209.839-1.446,0,0,.009-.065.009-.066l-.2,2.384.124.073L526.977,5.2l-.888,1.514q-.053.091-.1.15a.2.2,0,0,1-.077.065.176.176,0,0,1-.094,0,1.029,1.029,0,0,1-.2-.084l-.058.1c.068.04.137.079.206.117l.145.085c.087.046.171.1.255.149l.166.1c.078.05.159.1.239.144l.058-.1a1.45,1.45,0,0,1-.191-.144.265.265,0,0,1-.064-.1.188.188,0,0,1,.006-.105.9.9,0,0,1,.076-.157l.931-1.588q.054-.09.094-.146a.168.168,0,0,1,.074-.061.158.158,0,0,1,.1,0,1.217,1.217,0,0,1,.209.091m3.521,3.119.1-.1-1.185-1.18c-.023-.026-.048-.053-.076-.081l-.076-.086c-.034-.038-.063-.079-.093-.119a4.855,4.855,0,0,1-.564.567l.082.082a.969.969,0,0,1,.272-.168.4.4,0,0,1,.247,0,1,1,0,0,1,.318.176,5.545,5.545,0,0,1,.59.541l-2.885.578-.107.108,1.29,1.285c.024.028.051.056.079.084l.08.09c.03.038.06.075.092.112l.3-.254c.1-.084.209-.165.316-.245l-.084-.083a.786.786,0,0,1-.279.149.454.454,0,0,1-.27-.025,1.458,1.458,0,0,1-.362-.219,7.592,7.592,0,0,1-.69-.641Zm.375,2.74a6.477,6.477,0,0,1-.468-.611l1.041-.287.028-.031-.1.145c-.117.189-.236.377-.361.562-.05.079-.1.15-.144.222m-.128,1.023,1.33-2.108-.1-.138-2.19.579c-.108.027-.2.047-.286.06a.819.819,0,0,1-.2.012.428.428,0,0,1-.155-.048.636.636,0,0,1-.16-.146l-.089.067c.034.045.068.089.1.131l.069.091a2.315,2.315,0,0,1,.151.2l.092.121c.041.059.084.117.127.174l.092-.07a.354.354,0,0,1-.1-.194.126.126,0,0,1,.1-.123c.03-.012.076-.026.136-.044l.231-.063.326-.088c.03.039.044.057.077.1l.1.134c.065.079.211.277.274.37.03.038.055.074.073.1l.017.023c-.05.075-.1.152-.152.229s-.1.161-.151.231-.085.131-.12.179a.651.651,0,0,1-.05.071.026.026,0,0,1-.03.008.143.143,0,0,1-.047-.032.9.9,0,0,1-.068-.072l-.1-.129-.093.071c.049.065.1.13.151.194l.1.136c.059.071.114.144.167.221l.1.133c.046.066.093.13.142.194l.092-.07a1.173,1.173,0,0,1-.087-.14.218.218,0,0,1-.013-.09.368.368,0,0,1,.032-.11,1.721,1.721,0,0,1,.1-.164m2.827,2.1c.225-.129.457-.247.692-.354a3.4,3.4,0,0,1-.166-.422,2.114,2.114,0,0,0-.55-.957,1.448,1.448,0,0,0-.484-.318,1.292,1.292,0,0,0-.551-.084,1.613,1.613,0,0,0-1.041.528,1.253,1.253,0,0,0-.252.483,1.435,1.435,0,0,0-.028.567,1.984,1.984,0,0,0,.321.809c.044.07.09.137.136.2l.132.183c.041.055.081.11.119.168.24-.122.541-.29.811-.411a.2.2,0,0,1,.1-.023.123.123,0,0,1,.074.04.7.7,0,0,1,.117.162l.1-.053c-.036-.065-.073-.13-.107-.2-.111-.193-.21-.395-.305-.6-.047-.092-.093-.186-.138-.279l-.1.053a1.666,1.666,0,0,1,.109.279.241.241,0,0,1,.008.133.13.13,0,0,1-.061.08,1.09,1.09,0,0,1-.149.088l-.524.268a1.117,1.117,0,0,1-.4-.75.98.98,0,0,1,.05-.41,1.225,1.225,0,0,1,.254-.4,1.875,1.875,0,0,1,1.023-.532,1.01,1.01,0,0,1,.433.039.914.914,0,0,1,.349.213,1.161,1.161,0,0,1,.353.671.569.569,0,0,1-.039.259.836.836,0,0,1-.129.23c-.063.081-.13.157-.2.232Zm1.337,2.215a.76.76,0,0,1-.63.307.518.518,0,0,1-.211-.051.534.534,0,0,1-.183-.139.958.958,0,0,1-.169-.394,1.1,1.1,0,0,1-.017-.115l1.142-.348c.008.019.016.038.026.059l.038.1a.619.619,0,0,1,0,.582m.277.015a2.764,2.764,0,0,0-.21-.89c-.047-.153-.1-.306-.138-.46-.027-.087-.052-.176-.076-.264l-.111.034a1.083,1.083,0,0,1,.04.236.2.2,0,0,1-.02.115.172.172,0,0,1-.077.075.882.882,0,0,1-.158.063l-1.746.537a.953.953,0,0,1-.17.038.182.182,0,0,1-.186-.1,1.35,1.35,0,0,1-.1-.22l-.11.034c.027.087.055.174.084.261l.057.185c.032.093.062.186.087.282l.051.166c.021.079.044.157.069.236l.11-.034a1.122,1.122,0,0,1-.041-.223.172.172,0,0,1,.023-.091.189.189,0,0,1,.08-.059c.284-.1.615-.193.882-.275,0,.019,0,.036.007.051s.012.056.017.08a.682.682,0,0,1,.018.072l.021.067-.724.948a.884.884,0,0,0-.081.123.382.382,0,0,0-.032.167,2.807,2.807,0,0,0,.155.674l.106-.033a1.184,1.184,0,0,1-.013-.132c0-.029,0-.063,0-.1a.527.527,0,0,1,.024-.109.7.7,0,0,1,.105-.2c.064-.092.139-.193.223-.3l.269-.346q.119-.148.214-.278a1.022,1.022,0,0,0,.189.227.929.929,0,0,0,.12.088.549.549,0,0,0,.151.07.615.615,0,0,0,.173.026.713.713,0,0,0,.456-.164.615.615,0,0,0,.185-.235.849.849,0,0,0,.072-.339m-.914,2.714,1.054.235.04-.014-.154.083c-.192.112-.385.222-.583.326-.081.046-.156.087-.231.129a6.312,6.312,0,0,1-.126-.76m-.467,1.6,2.163-1.237-.028-.171-2.2-.517q-.163-.041-.281-.081a.813.813,0,0,1-.185-.084.411.411,0,0,1-.114-.114.645.645,0,0,1-.073-.2l-.11.017c.009.055.018.11.03.165l.018.113a2.406,2.406,0,0,1,.039.247l.024.151c.008.071.019.142.03.213l.114-.019a.355.355,0,0,1,.007-.216.127.127,0,0,1,.15-.06c.032,0,.08.013.14.026l.234.053.329.075c.008.048.012.071.022.123l.028.166c.02.1.056.344.068.456.007.048.013.09.016.125l0,.028-.242.131c-.087.049-.168.093-.242.133s-.137.076-.19.1a.709.709,0,0,1-.077.039.025.025,0,0,1-.029-.007.13.13,0,0,1-.028-.05c-.009-.027-.018-.059-.026-.1l-.026-.159-.115.019c.013.081.026.162.043.242l.027.168c.019.091.033.181.043.273l.027.166c.01.08.022.159.035.238l.113-.019a1.114,1.114,0,0,1-.01-.165.224.224,0,0,1,.029-.086.372.372,0,0,1,.081-.082,1.633,1.633,0,0,1,.164-.1m2.052,2.224a.656.656,0,0,1-.668.1.514.514,0,0,1-.163-.122.544.544,0,0,1-.1-.175,1.284,1.284,0,0,1-.024-.487v-.01l1.083.021.006.043c0,.027,0,.058.006.095a.694.694,0,0,1-.143.54m-1.172-.065a.7.7,0,0,1-.141.23.5.5,0,0,1-.191.128.667.667,0,0,1-.5-.014.5.5,0,0,1-.277-.343.8.8,0,0,1,.009-.456.3.3,0,0,1,.093-.12.374.374,0,0,1,.141-.058.921.921,0,0,1,.188-.014l.741.012a1.716,1.716,0,0,1-.06.635m1.482-1.454-.116,0a1.08,1.08,0,0,1-.034.237.2.2,0,0,1-.054.1.171.171,0,0,1-.1.047.859.859,0,0,1-.17.012l-1.826-.029a.853.853,0,0,1-.174-.017.181.181,0,0,1-.145-.155,1.407,1.407,0,0,1-.023-.238l-.114,0c0,.093,0,.187,0,.281l0,.2c0,.1,0,.2-.005.3l0,.168c0,.056,0,.111-.006.162l0,.131a1.934,1.934,0,0,0,.042.456,1.124,1.124,0,0,0,.149.361.751.751,0,0,0,.251.239.683.683,0,0,0,.685-.006.741.741,0,0,0,.215-.223.929.929,0,0,0,.12-.257c.008-.025.015-.049.022-.071l.012.027a1.021,1.021,0,0,0,.126.185.849.849,0,0,0,.193.159.6.6,0,0,0,.571,0,.572.572,0,0,0,.206-.2.879.879,0,0,0,.117-.289,2.564,2.564,0,0,0,.045-.651c0-.1,0-.2,0-.3s0-.232.009-.348c0-.092,0-.183.009-.275m1.1,1.027A22.064,22.064,0,1,1,516.1.435,22.065,22.065,0,0,1,538.163,22.5m.436,0A22.5,22.5,0,1,0,516.1,45a22.5,22.5,0,0,0,22.5-22.5" transform="translate(-380.796 0.001)"/>
    <path id="Path_6983" data-name="Path 6983" d="M237.59,7.552H196.423v8.992h41.1a3.693,3.693,0,0,1,3.761,3.673,3.776,3.776,0,0,1-3.761,3.772H227.9l-.007,8.988h5.115l8.277,16.449H251.41L242.6,32A12.746,12.746,0,0,0,237.59,7.553Z" transform="translate(-151.535 -5.826)" fill="#02000d" fill-rule="evenodd"/>
    <rect id="Rectangle_1888" data-name="Rectangle 1888" width="53.203" height="8.983" transform="translate(14.167 18.166)" fill="#02000d"/>
    <rect id="Rectangle_1889" data-name="Rectangle 1889" width="53.972" height="8.983" transform="translate(22.487 34.617)" fill="#02000d"/>
    <path id="Path_6984" data-name="Path 6984" d="M35.884,7.552H0v5.991H0V49.426H8.983V16.535h26.9Z" transform="translate(0 -5.826)" fill="#02000d" fill-rule="evenodd"/>
  </g>
</svg>
